<?xml version="1.0" encoding="utf-8"?>
<!-- Generator: Adobe Illustrator 16.0.0, SVG Export Plug-In . SVG Version: 6.00 Build 0)  -->
<!DOCTYPE svg PUBLIC "-//W3C//DTD SVG 1.1//EN" "http://www.w3.org/Graphics/SVG/1.1/DTD/svg11.dtd">
<svg version="1.1" id="Layer_1" xmlns="http://www.w3.org/2000/svg" xmlns:xlink="http://www.w3.org/1999/xlink" x="0px" y="0px"
	 width="113.39px" height="113.39px" viewBox="0 0 113.39 113.39" enable-background="new 0 0 113.39 113.39" xml:space="preserve">
<g>
	
		<radialGradient id="SVGID_1_" cx="56.6934" cy="56.6934" r="42.5195" gradientTransform="matrix(0.8333 0 0 0.8333 9.4487 9.4487)" gradientUnits="userSpaceOnUse">
		<stop  offset="0.0056" style="stop-color:#AEB0B7"/>
		<stop  offset="0.3156" style="stop-color:#AAAAA8"/>
		<stop  offset="0.3539" style="stop-color:#A9A9A6"/>
		<stop  offset="0.5001" style="stop-color:#9A9E9E"/>
		<stop  offset="0.6742" style="stop-color:#838C92"/>
		<stop  offset="1" style="stop-color:#657076"/>
	</radialGradient>
	<path fill="url(#SVGID_1_)" d="M92.126,86.221c0,3.262-2.644,5.905-5.904,5.905H27.166c-3.261,0-5.905-2.644-5.905-5.905V27.166
		c0-3.261,2.644-5.905,5.905-5.905h59.056c3.261,0,5.904,2.644,5.904,5.905V86.221z"/>
	<g>
		<g>
			<g>
				<g>
					<g>
						<path fill="none" d="M84.627,84.627h-2.808v14.998c0,0,0.854,0,2.136,0c0.325,0.024,2.159-0.06,3.68-0.115
							c0.764-0.152,1.563-0.271,2.354-0.458c0.758-0.28,1.532-0.572,2.283-0.901c1.451-0.769,2.797-1.745,3.818-2.895
							c1.034-1.14,1.794-2.379,2.285-3.507c0.226-0.575,0.432-1.103,0.614-1.57c0.143-0.48,0.202-0.922,0.284-1.273
							c0.146-0.711,0.23-1.116,0.23-1.116L84.627,84.627z"/>
					</g>
					<polygon fill-rule="evenodd" clip-rule="evenodd" fill="#231F20" points="85.417,92.652 85.27,91.156 82.829,91.156 
						82.829,92.656 					"/>
					<path fill-rule="evenodd" clip-rule="evenodd" fill="#231F20" d="M90.002,91.409l-0.981-1.239
						c0.019,0.028-0.464,0.295-0.952,0.555c-0.519,0.182-1.051,0.331-1.051,0.331l0.54,1.452c0.002,0.012,0.162-0.044,0.403-0.12
						c0.239-0.083,0.568-0.168,0.879-0.297C89.437,91.772,90.023,91.44,90.002,91.409z"/>
					<path fill-rule="evenodd" clip-rule="evenodd" fill="#231F20" d="M92.522,87.428l-1.456-0.517
						c0.035,0.008-0.137,0.533-0.3,1.061c-0.115,0.25-0.259,0.487-0.354,0.671c-0.096,0.185-0.169,0.301-0.175,0.296l1.253,0.964
						c0.008,0.005,0.098-0.137,0.216-0.361c0.118-0.224,0.295-0.514,0.437-0.819C92.349,88.078,92.564,87.438,92.522,87.428z"/>
				</g>
			</g>
			<g>
				<g>
					<g>
						<rect x="68.156" y="84.627" fill="none" width="13.663" height="14.998"/>
					</g>
					<rect x="69.166" y="91.156" fill-rule="evenodd" clip-rule="evenodd" fill="#231F20" width="2.536" height="1.5"/>
					<rect x="73.715" y="91.156" fill-rule="evenodd" clip-rule="evenodd" fill="#231F20" width="2.536" height="1.5"/>
					<rect x="78.248" y="91.156" fill-rule="evenodd" clip-rule="evenodd" fill="#231F20" width="2.536" height="1.5"/>
				</g>
			</g>
			<g>
				<g>
					<g>
						<rect x="54.493" y="84.627" fill="none" width="13.664" height="14.998"/>
					</g>
					<rect x="55.502" y="91.156" fill-rule="evenodd" clip-rule="evenodd" fill="#231F20" width="2.536" height="1.5"/>
					<rect x="60.051" y="91.156" fill-rule="evenodd" clip-rule="evenodd" fill="#231F20" width="2.536" height="1.5"/>
					<rect x="64.585" y="91.156" fill-rule="evenodd" clip-rule="evenodd" fill="#231F20" width="2.536" height="1.5"/>
				</g>
			</g>
			<g>
				<g>
					<g>
						<rect x="40.829" y="84.627" fill="none" width="13.664" height="14.998"/>
					</g>
					<rect x="41.839" y="91.156" fill-rule="evenodd" clip-rule="evenodd" fill="#231F20" width="2.536" height="1.5"/>
					<rect x="46.388" y="91.156" fill-rule="evenodd" clip-rule="evenodd" fill="#231F20" width="2.536" height="1.5"/>
					<rect x="50.921" y="91.156" fill-rule="evenodd" clip-rule="evenodd" fill="#231F20" width="2.536" height="1.5"/>
				</g>
			</g>
			<g>
				<g>
					<g>
						<path fill="none" d="M40.829,84.627H28.76l-3.162,14.877c0,0,0.423,0.017,1.165,0.045c0.371,0.014,0.821,0.031,1.337,0.051
							c0.233,0.008,0.481,0.017,0.742,0.025c0.146,0,0.299,0,0.459,0c1.281,0,2.989,0,4.697,0c3.416,0,6.832,0,6.832,0V84.627z"/>
					</g>
					<polygon fill-rule="evenodd" clip-rule="evenodd" fill="#231F20" points="30.711,92.656 30.711,91.156 28.251,91.156 
						28.135,92.653 					"/>
					<rect x="32.724" y="91.156" fill-rule="evenodd" clip-rule="evenodd" fill="#231F20" width="2.536" height="1.5"/>
					<rect x="37.258" y="91.156" fill-rule="evenodd" clip-rule="evenodd" fill="#231F20" width="2.536" height="1.5"/>
				</g>
			</g>
			<g>
				<g>
					<g>
						<path fill="none" d="M28.76,84.627v-2.808H13.761c0,0,0,0.854,0,2.136c-0.024,0.325,0.06,2.159,0.115,3.68
							c0.108,0.773,0.306,1.551,0.46,2.353c0.278,0.76,0.572,1.532,0.9,2.284c0.769,1.451,1.745,2.797,2.895,3.818
							c1.14,1.034,2.379,1.794,3.507,2.285c0.575,0.226,1.103,0.432,1.57,0.614c0.478,0.148,0.917,0.211,1.272,0.286
							c0.711,0.15,1.134,0.154,1.118,0.229L28.76,84.627z"/>
					</g>
					<polygon fill-rule="evenodd" clip-rule="evenodd" fill="#231F20" points="20.734,85.417 22.229,85.27 22.229,82.829 
						20.729,82.829 					"/>
					<path fill-rule="evenodd" clip-rule="evenodd" fill="#231F20" d="M21.978,90.002l1.238-0.981
						c-0.027,0.019-0.294-0.464-0.554-0.952c-0.182-0.519-0.332-1.051-0.332-1.051l-1.452,0.54
						c-0.011,0.002,0.044,0.162,0.121,0.403c0.083,0.239,0.168,0.568,0.296,0.879C21.614,89.437,21.946,90.023,21.978,90.002z"/>
					<path fill-rule="evenodd" clip-rule="evenodd" fill="#231F20" d="M25.958,92.523l0.517-1.457
						c-0.007,0.035-0.533-0.137-1.06-0.3c-0.25-0.115-0.487-0.259-0.67-0.354c-0.185-0.096-0.301-0.169-0.296-0.175l-0.963,1.253
						c-0.005,0.008,0.137,0.098,0.361,0.216c0.224,0.118,0.514,0.295,0.819,0.437C25.308,92.349,25.949,92.564,25.958,92.523z"/>
				</g>
			</g>
			<g>
				<g>
					<g>
						<rect x="13.761" y="68.156" fill="none" width="14.999" height="13.663"/>
					</g>
					<rect x="20.729" y="69.166" fill-rule="evenodd" clip-rule="evenodd" fill="#231F20" width="1.5" height="2.536"/>
					<rect x="20.729" y="73.715" fill-rule="evenodd" clip-rule="evenodd" fill="#231F20" width="1.5" height="2.536"/>
					<rect x="20.729" y="78.248" fill-rule="evenodd" clip-rule="evenodd" fill="#231F20" width="1.5" height="2.536"/>
				</g>
			</g>
			<g>
				<g>
					<g>
						<rect x="13.761" y="54.493" fill="none" width="14.999" height="13.664"/>
					</g>
					<rect x="20.729" y="55.502" fill-rule="evenodd" clip-rule="evenodd" fill="#231F20" width="1.5" height="2.536"/>
					<rect x="20.729" y="60.051" fill-rule="evenodd" clip-rule="evenodd" fill="#231F20" width="1.5" height="2.536"/>
					<rect x="20.729" y="64.585" fill-rule="evenodd" clip-rule="evenodd" fill="#231F20" width="1.5" height="2.536"/>
				</g>
			</g>
			<g>
				<g>
					<g>
						<rect x="13.761" y="40.829" fill="none" width="14.999" height="13.664"/>
					</g>
					<rect x="20.729" y="41.839" fill-rule="evenodd" clip-rule="evenodd" fill="#231F20" width="1.5" height="2.536"/>
					<rect x="20.729" y="46.387" fill-rule="evenodd" clip-rule="evenodd" fill="#231F20" width="1.5" height="2.536"/>
					<rect x="20.729" y="50.921" fill-rule="evenodd" clip-rule="evenodd" fill="#231F20" width="1.5" height="2.536"/>
				</g>
			</g>
			<g>
				<g>
					<g>
						<path fill="none" d="M28.76,40.829V28.76l-14.877-3.162c0,0-0.017,0.423-0.045,1.165c-0.014,0.371-0.031,0.821-0.051,1.337
							c-0.008,0.233-0.016,0.48-0.025,0.742c0,0.146,0,0.3,0,0.46c0,1.281,0,2.989,0,4.697c0,3.416,0,6.832,0,6.832H28.76z"/>
					</g>
					<polygon fill-rule="evenodd" clip-rule="evenodd" fill="#231F20" points="20.729,30.711 22.229,30.711 22.229,28.25 
						20.733,28.134 					"/>
					<rect x="20.729" y="32.724" fill-rule="evenodd" clip-rule="evenodd" fill="#231F20" width="1.5" height="2.537"/>
					<rect x="20.729" y="37.258" fill-rule="evenodd" clip-rule="evenodd" fill="#231F20" width="1.5" height="2.536"/>
				</g>
			</g>
			<g>
				<g>
					<g>
						<path fill="none" d="M28.76,28.76h2.807V13.761c0,0-0.854,0-2.135,0c-0.325-0.024-2.159,0.06-3.68,0.115
							c-0.774,0.108-1.551,0.306-2.353,0.46c-0.76,0.278-1.533,0.572-2.285,0.9c-1.451,0.769-2.797,1.745-3.818,2.895
							c-1.034,1.14-1.793,2.379-2.285,3.507c-0.225,0.575-0.431,1.103-0.614,1.57c-0.148,0.478-0.211,0.917-0.287,1.272
							c-0.15,0.711-0.154,1.134-0.228,1.118L28.76,28.76z"/>
					</g>
					<polygon fill-rule="evenodd" clip-rule="evenodd" fill="#231F20" points="27.97,20.734 28.117,22.229 30.557,22.229 
						30.557,20.729 					"/>
					<path fill-rule="evenodd" clip-rule="evenodd" fill="#231F20" d="M23.384,21.978l0.981,1.239
						c-0.019-0.028,0.464-0.294,0.952-0.554c0.519-0.182,1.051-0.332,1.051-0.332l-0.54-1.452c-0.002-0.011-0.162,0.044-0.404,0.121
						c-0.239,0.083-0.568,0.168-0.879,0.296C23.95,21.614,23.363,21.946,23.384,21.978z"/>
					<path fill-rule="evenodd" clip-rule="evenodd" fill="#231F20" d="M20.863,25.958l1.457,0.517
						c-0.036-0.007,0.136-0.533,0.3-1.06c0.115-0.25,0.259-0.487,0.354-0.67c0.095-0.185,0.168-0.301,0.175-0.296l-1.253-0.963
						c-0.008-0.005-0.098,0.137-0.216,0.361c-0.118,0.224-0.294,0.514-0.436,0.819C21.037,25.308,20.821,25.949,20.863,25.958z"/>
				</g>
			</g>
			<g>
				<g>
					<g>
						<rect x="31.567" y="13.761" fill="none" width="13.663" height="14.999"/>
					</g>
					<rect x="41.685" y="20.729" fill-rule="evenodd" clip-rule="evenodd" fill="#231F20" width="2.536" height="1.5"/>
					<rect x="37.136" y="20.729" fill-rule="evenodd" clip-rule="evenodd" fill="#231F20" width="2.536" height="1.5"/>
					<rect x="32.602" y="20.729" fill-rule="evenodd" clip-rule="evenodd" fill="#231F20" width="2.536" height="1.5"/>
				</g>
			</g>
			<g>
				<g>
					<g>
						<rect x="45.23" y="13.761" fill="none" width="13.664" height="14.999"/>
					</g>
					<rect x="55.348" y="20.729" fill-rule="evenodd" clip-rule="evenodd" fill="#231F20" width="2.536" height="1.5"/>
					<rect x="50.799" y="20.729" fill-rule="evenodd" clip-rule="evenodd" fill="#231F20" width="2.536" height="1.5"/>
					<rect x="46.266" y="20.729" fill-rule="evenodd" clip-rule="evenodd" fill="#231F20" width="2.536" height="1.5"/>
				</g>
			</g>
			<g>
				<g>
					<g>
						<rect x="58.894" y="13.761" fill="none" width="13.664" height="14.999"/>
					</g>
					<rect x="69.012" y="20.729" fill-rule="evenodd" clip-rule="evenodd" fill="#231F20" width="2.536" height="1.5"/>
					<rect x="64.463" y="20.729" fill-rule="evenodd" clip-rule="evenodd" fill="#231F20" width="2.536" height="1.5"/>
					<rect x="59.929" y="20.729" fill-rule="evenodd" clip-rule="evenodd" fill="#231F20" width="2.536" height="1.5"/>
				</g>
			</g>
			<g>
				<g>
					<g>
						<path fill="none" d="M72.558,28.76h12.069l3.162-14.877c0,0-0.424-0.017-1.165-0.045c-0.37-0.014-0.82-0.031-1.337-0.051
							c-0.232-0.008-0.48-0.016-0.742-0.025c-0.146,0-0.299,0-0.459,0c-1.281,0-2.989,0-4.697,0c-3.416,0-6.831,0-6.831,0V28.76z"/>
					</g>
					<polygon fill-rule="evenodd" clip-rule="evenodd" fill="#231F20" points="82.675,20.729 82.675,22.229 85.136,22.229 
						85.252,20.733 					"/>
					<rect x="78.126" y="20.729" fill-rule="evenodd" clip-rule="evenodd" fill="#231F20" width="2.536" height="1.5"/>
					<rect x="73.593" y="20.729" fill-rule="evenodd" clip-rule="evenodd" fill="#231F20" width="2.536" height="1.5"/>
				</g>
			</g>
			<g>
				<g>
					<g>
						<path fill="none" d="M84.627,28.76v2.807h14.998c0,0,0-0.854,0-2.135c0.024-0.325-0.06-2.159-0.115-3.68
							c-0.107-0.773-0.306-1.55-0.459-2.353c-0.278-0.759-0.572-1.533-0.9-2.284c-0.769-1.452-1.745-2.797-2.895-3.818
							c-1.14-1.034-2.379-1.793-3.507-2.285c-0.575-0.225-1.103-0.432-1.57-0.614c-0.478-0.148-0.917-0.211-1.271-0.287
							c-0.711-0.15-1.134-0.154-1.118-0.228L84.627,28.76z"/>
					</g>
					<polygon fill-rule="evenodd" clip-rule="evenodd" fill="#231F20" points="92.652,27.97 91.156,28.116 91.156,30.557 
						92.656,30.557 					"/>
					<path fill-rule="evenodd" clip-rule="evenodd" fill="#231F20" d="M91.408,23.384l-1.238,0.981
						c0.028-0.019,0.295,0.464,0.554,0.952c0.183,0.519,0.332,1.051,0.332,1.051l1.452-0.54c0.012-0.002-0.044-0.163-0.121-0.404
						c-0.083-0.239-0.168-0.568-0.296-0.879C91.772,23.95,91.44,23.363,91.408,23.384z"/>
					<path fill-rule="evenodd" clip-rule="evenodd" fill="#231F20" d="M87.429,20.863l-0.518,1.457
						c0.008-0.036,0.533,0.136,1.061,0.3c0.25,0.115,0.487,0.258,0.671,0.354c0.185,0.095,0.301,0.168,0.296,0.175l0.964-1.253
						c0.005-0.007-0.137-0.098-0.361-0.216c-0.224-0.118-0.514-0.295-0.819-0.436C88.078,21.037,87.438,20.821,87.429,20.863z"/>
				</g>
			</g>
			<g>
				<g>
					<g>
						<rect x="84.627" y="31.566" fill="none" width="14.998" height="13.664"/>
					</g>
					<rect x="91.156" y="41.685" fill-rule="evenodd" clip-rule="evenodd" fill="#231F20" width="1.5" height="2.536"/>
					<rect x="91.156" y="37.136" fill-rule="evenodd" clip-rule="evenodd" fill="#231F20" width="1.5" height="2.536"/>
					<rect x="91.156" y="32.602" fill-rule="evenodd" clip-rule="evenodd" fill="#231F20" width="1.5" height="2.536"/>
				</g>
			</g>
			<g>
				<g>
					<g>
						<rect x="84.627" y="45.23" fill="none" width="14.998" height="13.664"/>
					</g>
					<rect x="91.156" y="55.348" fill-rule="evenodd" clip-rule="evenodd" fill="#231F20" width="1.5" height="2.536"/>
					<rect x="91.156" y="50.799" fill-rule="evenodd" clip-rule="evenodd" fill="#231F20" width="1.5" height="2.536"/>
					<rect x="91.156" y="46.266" fill-rule="evenodd" clip-rule="evenodd" fill="#231F20" width="1.5" height="2.536"/>
				</g>
			</g>
			<g>
				<g>
					<g>
						<rect x="84.627" y="58.894" fill="none" width="14.998" height="13.664"/>
					</g>
					<rect x="91.156" y="69.012" fill-rule="evenodd" clip-rule="evenodd" fill="#231F20" width="1.5" height="2.536"/>
					<rect x="91.156" y="64.463" fill-rule="evenodd" clip-rule="evenodd" fill="#231F20" width="1.5" height="2.536"/>
					<rect x="91.156" y="59.929" fill-rule="evenodd" clip-rule="evenodd" fill="#231F20" width="1.5" height="2.536"/>
				</g>
			</g>
			<g>
				<g>
					<g>
						<path fill="none" d="M84.627,72.558v12.069l14.877,3.162c0,0,0.017-0.424,0.045-1.165c0.014-0.37,0.031-0.82,0.051-1.337
							c0.008-0.232,0.017-0.48,0.025-0.742c0-0.146,0-0.299,0-0.459c0-1.281,0-2.989,0-4.697c0-3.416,0-6.831,0-6.831H84.627z"/>
					</g>
					<polygon fill-rule="evenodd" clip-rule="evenodd" fill="#231F20" points="92.656,82.675 91.156,82.675 91.156,85.136 
						92.653,85.252 					"/>
					<rect x="91.156" y="78.126" fill-rule="evenodd" clip-rule="evenodd" fill="#231F20" width="1.5" height="2.536"/>
					<rect x="91.156" y="73.593" fill-rule="evenodd" clip-rule="evenodd" fill="#231F20" width="1.5" height="2.536"/>
				</g>
			</g>
		</g>
	</g>
</g>
<linearGradient id="SVGID_2_" gradientUnits="userSpaceOnUse" x1="76.5352" y1="19.8428" x2="82.2051" y2="19.8428">
	<stop  offset="0.0056" style="stop-color:#DEE3E6"/>
	<stop  offset="0.2528" style="stop-color:#FFFDE5"/>
	<stop  offset="0.3953" style="stop-color:#F0ECD8"/>
	<stop  offset="0.5955" style="stop-color:#D6CDC1"/>
	<stop  offset="0.7865" style="stop-color:#EDEDEE"/>
	<stop  offset="1" style="stop-color:#D8D5BB"/>
</linearGradient>
<linearGradient id="SVGID_3_" gradientUnits="userSpaceOnUse" x1="76.0352" y1="19.8428" x2="82.7051" y2="19.8428">
	<stop  offset="0.0337" style="stop-color:#A7A9AC"/>
	<stop  offset="0.2325" style="stop-color:#B6B8BA"/>
	<stop  offset="0.382" style="stop-color:#C4C6C8"/>
	<stop  offset="0.5744" style="stop-color:#B5B7BA"/>
	<stop  offset="0.7191" style="stop-color:#A7A9AC"/>
	<stop  offset="1" style="stop-color:#D1D3D4"/>
	<stop  offset="1" style="stop-color:#A7A9AC"/>
</linearGradient>
<path fill="url(#SVGID_2_)" stroke="url(#SVGID_3_)" stroke-miterlimit="10" d="M82.205,22.677c0,1.565-1.27,2.834-2.835,2.834l0,0
	c-1.565,0-2.835-1.269-2.835-2.834v-5.669c0-1.565,1.27-2.834,2.835-2.834l0,0c1.565,0,2.835,1.269,2.835,2.834V22.677z"/>
<linearGradient id="SVGID_4_" gradientUnits="userSpaceOnUse" x1="65.1963" y1="19.8428" x2="70.8662" y2="19.8428">
	<stop  offset="0.0056" style="stop-color:#DEE3E6"/>
	<stop  offset="0.2528" style="stop-color:#FFFDE5"/>
	<stop  offset="0.3953" style="stop-color:#F0ECD8"/>
	<stop  offset="0.5955" style="stop-color:#D6CDC1"/>
	<stop  offset="0.7865" style="stop-color:#EDEDEE"/>
	<stop  offset="1" style="stop-color:#D8D5BB"/>
</linearGradient>
<linearGradient id="SVGID_5_" gradientUnits="userSpaceOnUse" x1="64.6963" y1="19.8428" x2="71.3662" y2="19.8428">
	<stop  offset="0.0337" style="stop-color:#A7A9AC"/>
	<stop  offset="0.2325" style="stop-color:#B6B8BA"/>
	<stop  offset="0.382" style="stop-color:#C4C6C8"/>
	<stop  offset="0.5744" style="stop-color:#B5B7BA"/>
	<stop  offset="0.7191" style="stop-color:#A7A9AC"/>
	<stop  offset="1" style="stop-color:#D1D3D4"/>
	<stop  offset="1" style="stop-color:#A7A9AC"/>
</linearGradient>
<path fill="url(#SVGID_4_)" stroke="url(#SVGID_5_)" stroke-miterlimit="10" d="M70.866,22.677c0,1.565-1.27,2.834-2.835,2.834l0,0
	c-1.565,0-2.835-1.269-2.835-2.834v-5.669c0-1.565,1.27-2.834,2.835-2.834l0,0c1.565,0,2.835,1.269,2.835,2.834V22.677z"/>
<linearGradient id="SVGID_6_" gradientUnits="userSpaceOnUse" x1="53.8579" y1="19.8428" x2="59.5283" y2="19.8428">
	<stop  offset="0.0056" style="stop-color:#DEE3E6"/>
	<stop  offset="0.2528" style="stop-color:#FFFDE5"/>
	<stop  offset="0.3953" style="stop-color:#F0ECD8"/>
	<stop  offset="0.5955" style="stop-color:#D6CDC1"/>
	<stop  offset="0.7865" style="stop-color:#EDEDEE"/>
	<stop  offset="1" style="stop-color:#D8D5BB"/>
</linearGradient>
<linearGradient id="SVGID_7_" gradientUnits="userSpaceOnUse" x1="53.3579" y1="19.8428" x2="60.0283" y2="19.8428">
	<stop  offset="0.0337" style="stop-color:#A7A9AC"/>
	<stop  offset="0.2325" style="stop-color:#B6B8BA"/>
	<stop  offset="0.382" style="stop-color:#C4C6C8"/>
	<stop  offset="0.5744" style="stop-color:#B5B7BA"/>
	<stop  offset="0.7191" style="stop-color:#A7A9AC"/>
	<stop  offset="1" style="stop-color:#D1D3D4"/>
	<stop  offset="1" style="stop-color:#A7A9AC"/>
</linearGradient>
<path fill="url(#SVGID_6_)" stroke="url(#SVGID_7_)" stroke-miterlimit="10" d="M59.528,22.677c0,1.565-1.27,2.834-2.835,2.834l0,0
	c-1.565,0-2.835-1.269-2.835-2.834v-5.669c0-1.565,1.27-2.834,2.835-2.834l0,0c1.566,0,2.835,1.269,2.835,2.834V22.677z"/>
<linearGradient id="SVGID_8_" gradientUnits="userSpaceOnUse" x1="42.519" y1="19.8428" x2="48.1895" y2="19.8428">
	<stop  offset="0.0056" style="stop-color:#DEE3E6"/>
	<stop  offset="0.2528" style="stop-color:#FFFDE5"/>
	<stop  offset="0.3953" style="stop-color:#F0ECD8"/>
	<stop  offset="0.5955" style="stop-color:#D6CDC1"/>
	<stop  offset="0.7865" style="stop-color:#EDEDEE"/>
	<stop  offset="1" style="stop-color:#D8D5BB"/>
</linearGradient>
<linearGradient id="SVGID_9_" gradientUnits="userSpaceOnUse" x1="42.019" y1="19.8428" x2="48.6895" y2="19.8428">
	<stop  offset="0.0337" style="stop-color:#A7A9AC"/>
	<stop  offset="0.2325" style="stop-color:#B6B8BA"/>
	<stop  offset="0.382" style="stop-color:#C4C6C8"/>
	<stop  offset="0.5744" style="stop-color:#B5B7BA"/>
	<stop  offset="0.7191" style="stop-color:#A7A9AC"/>
	<stop  offset="1" style="stop-color:#D1D3D4"/>
	<stop  offset="1" style="stop-color:#A7A9AC"/>
</linearGradient>
<path fill="url(#SVGID_8_)" stroke="url(#SVGID_9_)" stroke-miterlimit="10" d="M48.189,22.677c0,1.565-1.27,2.834-2.835,2.834l0,0
	c-1.565,0-2.835-1.269-2.835-2.834v-5.669c0-1.565,1.27-2.834,2.835-2.834l0,0c1.566,0,2.835,1.269,2.835,2.834V22.677z"/>
<linearGradient id="SVGID_10_" gradientUnits="userSpaceOnUse" x1="31.1807" y1="19.8428" x2="36.8511" y2="19.8428">
	<stop  offset="0.0056" style="stop-color:#DEE3E6"/>
	<stop  offset="0.2528" style="stop-color:#FFFDE5"/>
	<stop  offset="0.3953" style="stop-color:#F0ECD8"/>
	<stop  offset="0.5955" style="stop-color:#D6CDC1"/>
	<stop  offset="0.7865" style="stop-color:#EDEDEE"/>
	<stop  offset="1" style="stop-color:#D8D5BB"/>
</linearGradient>
<linearGradient id="SVGID_11_" gradientUnits="userSpaceOnUse" x1="30.6807" y1="19.8428" x2="37.3511" y2="19.8428">
	<stop  offset="0.0337" style="stop-color:#A7A9AC"/>
	<stop  offset="0.2325" style="stop-color:#B6B8BA"/>
	<stop  offset="0.382" style="stop-color:#C4C6C8"/>
	<stop  offset="0.5744" style="stop-color:#B5B7BA"/>
	<stop  offset="0.7191" style="stop-color:#A7A9AC"/>
	<stop  offset="1" style="stop-color:#D1D3D4"/>
	<stop  offset="1" style="stop-color:#A7A9AC"/>
</linearGradient>
<path fill="url(#SVGID_10_)" stroke="url(#SVGID_11_)" stroke-miterlimit="10" d="M36.851,22.677c0,1.565-1.27,2.834-2.835,2.834
	l0,0c-1.565,0-2.835-1.269-2.835-2.834v-5.669c0-1.565,1.27-2.834,2.835-2.834l0,0c1.566,0,2.835,1.269,2.835,2.834V22.677z"/>
<linearGradient id="SVGID_12_" gradientUnits="userSpaceOnUse" x1="64.6836" y1="31.9912" x2="70.3535" y2="31.9912" gradientTransform="matrix(-4.371139e-008 -1 1 -4.371139e-008 -12.1494 101.5347)">
	<stop  offset="0.0056" style="stop-color:#DEE3E6"/>
	<stop  offset="0.2528" style="stop-color:#FFFDE5"/>
	<stop  offset="0.3953" style="stop-color:#F0ECD8"/>
	<stop  offset="0.5955" style="stop-color:#D6CDC1"/>
	<stop  offset="0.7865" style="stop-color:#EDEDEE"/>
	<stop  offset="1" style="stop-color:#D8D5BB"/>
</linearGradient>
<linearGradient id="SVGID_13_" gradientUnits="userSpaceOnUse" x1="64.1836" y1="31.9912" x2="70.8535" y2="31.9912" gradientTransform="matrix(-4.371139e-008 -1 1 -4.371139e-008 -12.1494 101.5347)">
	<stop  offset="0.0337" style="stop-color:#A7A9AC"/>
	<stop  offset="0.2325" style="stop-color:#B6B8BA"/>
	<stop  offset="0.382" style="stop-color:#C4C6C8"/>
	<stop  offset="0.5744" style="stop-color:#B5B7BA"/>
	<stop  offset="0.7191" style="stop-color:#A7A9AC"/>
	<stop  offset="1" style="stop-color:#D1D3D4"/>
	<stop  offset="1" style="stop-color:#A7A9AC"/>
</linearGradient>
<path fill="url(#SVGID_12_)" stroke="url(#SVGID_13_)" stroke-miterlimit="10" d="M22.678,31.181c1.564,0,2.834,1.27,2.834,2.835
	l0,0c0,1.565-1.27,2.835-2.834,2.835h-5.67c-1.565,0-2.835-1.27-2.835-2.835l0,0c0-1.565,1.27-2.835,2.835-2.835H22.678z"/>
<linearGradient id="SVGID_14_" gradientUnits="userSpaceOnUse" x1="53.3452" y1="31.9912" x2="59.0156" y2="31.9912" gradientTransform="matrix(-4.371139e-008 -1 1 -4.371139e-008 -12.1494 101.5347)">
	<stop  offset="0.0056" style="stop-color:#DEE3E6"/>
	<stop  offset="0.2528" style="stop-color:#FFFDE5"/>
	<stop  offset="0.3953" style="stop-color:#F0ECD8"/>
	<stop  offset="0.5955" style="stop-color:#D6CDC1"/>
	<stop  offset="0.7865" style="stop-color:#EDEDEE"/>
	<stop  offset="1" style="stop-color:#D8D5BB"/>
</linearGradient>
<linearGradient id="SVGID_15_" gradientUnits="userSpaceOnUse" x1="52.8452" y1="31.9912" x2="59.5156" y2="31.9912" gradientTransform="matrix(-4.371139e-008 -1 1 -4.371139e-008 -12.1494 101.5347)">
	<stop  offset="0.0337" style="stop-color:#A7A9AC"/>
	<stop  offset="0.2325" style="stop-color:#B6B8BA"/>
	<stop  offset="0.382" style="stop-color:#C4C6C8"/>
	<stop  offset="0.5744" style="stop-color:#B5B7BA"/>
	<stop  offset="0.7191" style="stop-color:#A7A9AC"/>
	<stop  offset="1" style="stop-color:#D1D3D4"/>
	<stop  offset="1" style="stop-color:#A7A9AC"/>
</linearGradient>
<path fill="url(#SVGID_14_)" stroke="url(#SVGID_15_)" stroke-miterlimit="10" d="M22.678,42.52c1.564,0,2.834,1.27,2.834,2.835l0,0
	c0,1.565-1.27,2.835-2.834,2.835h-5.67c-1.565,0-2.835-1.27-2.835-2.835l0,0c0-1.565,1.27-2.835,2.835-2.835H22.678z"/>
<linearGradient id="SVGID_16_" gradientUnits="userSpaceOnUse" x1="42.0068" y1="31.9912" x2="47.6772" y2="31.9912" gradientTransform="matrix(-4.371139e-008 -1 1 -4.371139e-008 -12.1494 101.5347)">
	<stop  offset="0.0056" style="stop-color:#DEE3E6"/>
	<stop  offset="0.2528" style="stop-color:#FFFDE5"/>
	<stop  offset="0.3953" style="stop-color:#F0ECD8"/>
	<stop  offset="0.5955" style="stop-color:#D6CDC1"/>
	<stop  offset="0.7865" style="stop-color:#EDEDEE"/>
	<stop  offset="1" style="stop-color:#D8D5BB"/>
</linearGradient>
<linearGradient id="SVGID_17_" gradientUnits="userSpaceOnUse" x1="41.5068" y1="31.9912" x2="48.1772" y2="31.9912" gradientTransform="matrix(-4.371139e-008 -1 1 -4.371139e-008 -12.1494 101.5347)">
	<stop  offset="0.0337" style="stop-color:#A7A9AC"/>
	<stop  offset="0.2325" style="stop-color:#B6B8BA"/>
	<stop  offset="0.382" style="stop-color:#C4C6C8"/>
	<stop  offset="0.5744" style="stop-color:#B5B7BA"/>
	<stop  offset="0.7191" style="stop-color:#A7A9AC"/>
	<stop  offset="1" style="stop-color:#D1D3D4"/>
	<stop  offset="1" style="stop-color:#A7A9AC"/>
</linearGradient>
<path fill="url(#SVGID_16_)" stroke="url(#SVGID_17_)" stroke-miterlimit="10" d="M22.678,53.857c1.564,0,2.834,1.27,2.834,2.835
	l0,0c0,1.566-1.27,2.835-2.834,2.835h-5.67c-1.565,0-2.834-1.27-2.835-2.835l0,0c0-1.566,1.27-2.835,2.835-2.835H22.678z"/>
<linearGradient id="SVGID_18_" gradientUnits="userSpaceOnUse" x1="30.668" y1="31.9912" x2="36.3389" y2="31.9912" gradientTransform="matrix(-4.371139e-008 -1 1 -4.371139e-008 -12.1494 101.5347)">
	<stop  offset="0.0056" style="stop-color:#DEE3E6"/>
	<stop  offset="0.2528" style="stop-color:#FFFDE5"/>
	<stop  offset="0.3953" style="stop-color:#F0ECD8"/>
	<stop  offset="0.5955" style="stop-color:#D6CDC1"/>
	<stop  offset="0.7865" style="stop-color:#EDEDEE"/>
	<stop  offset="1" style="stop-color:#D8D5BB"/>
</linearGradient>
<linearGradient id="SVGID_19_" gradientUnits="userSpaceOnUse" x1="30.168" y1="31.9912" x2="36.8389" y2="31.9912" gradientTransform="matrix(-4.371139e-008 -1 1 -4.371139e-008 -12.1494 101.5347)">
	<stop  offset="0.0337" style="stop-color:#A7A9AC"/>
	<stop  offset="0.2325" style="stop-color:#B6B8BA"/>
	<stop  offset="0.382" style="stop-color:#C4C6C8"/>
	<stop  offset="0.5744" style="stop-color:#B5B7BA"/>
	<stop  offset="0.7191" style="stop-color:#A7A9AC"/>
	<stop  offset="1" style="stop-color:#D1D3D4"/>
	<stop  offset="1" style="stop-color:#A7A9AC"/>
</linearGradient>
<path fill="url(#SVGID_18_)" stroke="url(#SVGID_19_)" stroke-miterlimit="10" d="M22.678,65.196c1.564,0,2.834,1.27,2.834,2.836
	l0,0c0,1.565-1.27,2.835-2.834,2.835h-5.67c-1.565,0-2.834-1.27-2.834-2.835l0,0c0-1.566,1.269-2.836,2.834-2.836H22.678z"/>
<linearGradient id="SVGID_20_" gradientUnits="userSpaceOnUse" x1="19.3301" y1="31.9912" x2="25" y2="31.9912" gradientTransform="matrix(-4.371139e-008 -1 1 -4.371139e-008 -12.1494 101.5347)">
	<stop  offset="0.0056" style="stop-color:#DEE3E6"/>
	<stop  offset="0.2528" style="stop-color:#FFFDE5"/>
	<stop  offset="0.3953" style="stop-color:#F0ECD8"/>
	<stop  offset="0.5955" style="stop-color:#D6CDC1"/>
	<stop  offset="0.7865" style="stop-color:#EDEDEE"/>
	<stop  offset="1" style="stop-color:#D8D5BB"/>
</linearGradient>
<linearGradient id="SVGID_21_" gradientUnits="userSpaceOnUse" x1="18.8301" y1="31.9912" x2="25.5" y2="31.9912" gradientTransform="matrix(-4.371139e-008 -1 1 -4.371139e-008 -12.1494 101.5347)">
	<stop  offset="0.0337" style="stop-color:#A7A9AC"/>
	<stop  offset="0.2325" style="stop-color:#B6B8BA"/>
	<stop  offset="0.382" style="stop-color:#C4C6C8"/>
	<stop  offset="0.5744" style="stop-color:#B5B7BA"/>
	<stop  offset="0.7191" style="stop-color:#A7A9AC"/>
	<stop  offset="1" style="stop-color:#D1D3D4"/>
	<stop  offset="1" style="stop-color:#A7A9AC"/>
</linearGradient>
<path fill="url(#SVGID_20_)" stroke="url(#SVGID_21_)" stroke-miterlimit="10" d="M22.678,76.535c1.564,0,2.834,1.27,2.834,2.835
	l0,0c0,1.565-1.27,2.835-2.834,2.835h-5.67c-1.565,0-2.834-1.27-2.834-2.835l0,0c0-1.565,1.269-2.835,2.834-2.835H22.678z"/>
<linearGradient id="SVGID_22_" gradientUnits="userSpaceOnUse" x1="64.6836" y1="105.6934" x2="70.3535" y2="105.6934" gradientTransform="matrix(-4.371139e-008 -1 1 -4.371139e-008 -12.1494 101.5347)">
	<stop  offset="0.0056" style="stop-color:#DEE3E6"/>
	<stop  offset="0.2528" style="stop-color:#FFFDE5"/>
	<stop  offset="0.3953" style="stop-color:#F0ECD8"/>
	<stop  offset="0.5955" style="stop-color:#D6CDC1"/>
	<stop  offset="0.7865" style="stop-color:#EDEDEE"/>
	<stop  offset="1" style="stop-color:#D8D5BB"/>
</linearGradient>
<linearGradient id="SVGID_23_" gradientUnits="userSpaceOnUse" x1="64.1836" y1="105.6934" x2="70.8535" y2="105.6934" gradientTransform="matrix(-4.371139e-008 -1 1 -4.371139e-008 -12.1494 101.5347)">
	<stop  offset="0.0337" style="stop-color:#A7A9AC"/>
	<stop  offset="0.2325" style="stop-color:#B6B8BA"/>
	<stop  offset="0.382" style="stop-color:#C4C6C8"/>
	<stop  offset="0.5744" style="stop-color:#B5B7BA"/>
	<stop  offset="0.7191" style="stop-color:#A7A9AC"/>
	<stop  offset="1" style="stop-color:#D1D3D4"/>
	<stop  offset="1" style="stop-color:#A7A9AC"/>
</linearGradient>
<path fill="url(#SVGID_22_)" stroke="url(#SVGID_23_)" stroke-miterlimit="10" d="M96.379,31.181c1.564,0,2.834,1.27,2.834,2.835
	l0,0c0,1.565-1.27,2.835-2.834,2.835h-5.67c-1.565,0-2.835-1.27-2.835-2.835l0,0c0-1.565,1.27-2.835,2.835-2.835H96.379z"/>
<linearGradient id="SVGID_24_" gradientUnits="userSpaceOnUse" x1="53.3452" y1="105.6934" x2="59.0156" y2="105.6934" gradientTransform="matrix(-4.371139e-008 -1 1 -4.371139e-008 -12.1494 101.5347)">
	<stop  offset="0.0056" style="stop-color:#DEE3E6"/>
	<stop  offset="0.2528" style="stop-color:#FFFDE5"/>
	<stop  offset="0.3953" style="stop-color:#F0ECD8"/>
	<stop  offset="0.5955" style="stop-color:#D6CDC1"/>
	<stop  offset="0.7865" style="stop-color:#EDEDEE"/>
	<stop  offset="1" style="stop-color:#D8D5BB"/>
</linearGradient>
<linearGradient id="SVGID_25_" gradientUnits="userSpaceOnUse" x1="52.8452" y1="105.6934" x2="59.5156" y2="105.6934" gradientTransform="matrix(-4.371139e-008 -1 1 -4.371139e-008 -12.1494 101.5347)">
	<stop  offset="0.0337" style="stop-color:#A7A9AC"/>
	<stop  offset="0.2325" style="stop-color:#B6B8BA"/>
	<stop  offset="0.382" style="stop-color:#C4C6C8"/>
	<stop  offset="0.5744" style="stop-color:#B5B7BA"/>
	<stop  offset="0.7191" style="stop-color:#A7A9AC"/>
	<stop  offset="1" style="stop-color:#D1D3D4"/>
	<stop  offset="1" style="stop-color:#A7A9AC"/>
</linearGradient>
<path fill="url(#SVGID_24_)" stroke="url(#SVGID_25_)" stroke-miterlimit="10" d="M96.379,42.52c1.564,0,2.834,1.27,2.834,2.835l0,0
	c0,1.565-1.27,2.835-2.834,2.835h-5.67c-1.565,0-2.835-1.27-2.835-2.835l0,0c0-1.565,1.27-2.835,2.835-2.835H96.379z"/>
<linearGradient id="SVGID_26_" gradientUnits="userSpaceOnUse" x1="42.0068" y1="105.6934" x2="47.6772" y2="105.6934" gradientTransform="matrix(-4.371139e-008 -1 1 -4.371139e-008 -12.1494 101.5347)">
	<stop  offset="0.0056" style="stop-color:#DEE3E6"/>
	<stop  offset="0.2528" style="stop-color:#FFFDE5"/>
	<stop  offset="0.3953" style="stop-color:#F0ECD8"/>
	<stop  offset="0.5955" style="stop-color:#D6CDC1"/>
	<stop  offset="0.7865" style="stop-color:#EDEDEE"/>
	<stop  offset="1" style="stop-color:#D8D5BB"/>
</linearGradient>
<linearGradient id="SVGID_27_" gradientUnits="userSpaceOnUse" x1="41.5068" y1="105.6934" x2="48.1772" y2="105.6934" gradientTransform="matrix(-4.371139e-008 -1 1 -4.371139e-008 -12.1494 101.5347)">
	<stop  offset="0.0337" style="stop-color:#A7A9AC"/>
	<stop  offset="0.2325" style="stop-color:#B6B8BA"/>
	<stop  offset="0.382" style="stop-color:#C4C6C8"/>
	<stop  offset="0.5744" style="stop-color:#B5B7BA"/>
	<stop  offset="0.7191" style="stop-color:#A7A9AC"/>
	<stop  offset="1" style="stop-color:#D1D3D4"/>
	<stop  offset="1" style="stop-color:#A7A9AC"/>
</linearGradient>
<path fill="url(#SVGID_26_)" stroke="url(#SVGID_27_)" stroke-miterlimit="10" d="M96.379,53.857c1.564,0,2.834,1.27,2.834,2.835
	l0,0c0,1.566-1.27,2.835-2.834,2.835h-5.67c-1.565,0-2.835-1.27-2.835-2.835l0,0c0-1.566,1.27-2.835,2.835-2.835H96.379z"/>
<linearGradient id="SVGID_28_" gradientUnits="userSpaceOnUse" x1="30.668" y1="105.6934" x2="36.3389" y2="105.6934" gradientTransform="matrix(-4.371139e-008 -1 1 -4.371139e-008 -12.1494 101.5347)">
	<stop  offset="0.0056" style="stop-color:#DEE3E6"/>
	<stop  offset="0.2528" style="stop-color:#FFFDE5"/>
	<stop  offset="0.3953" style="stop-color:#F0ECD8"/>
	<stop  offset="0.5955" style="stop-color:#D6CDC1"/>
	<stop  offset="0.7865" style="stop-color:#EDEDEE"/>
	<stop  offset="1" style="stop-color:#D8D5BB"/>
</linearGradient>
<linearGradient id="SVGID_29_" gradientUnits="userSpaceOnUse" x1="30.168" y1="105.6934" x2="36.8389" y2="105.6934" gradientTransform="matrix(-4.371139e-008 -1 1 -4.371139e-008 -12.1494 101.5347)">
	<stop  offset="0.0337" style="stop-color:#A7A9AC"/>
	<stop  offset="0.2325" style="stop-color:#B6B8BA"/>
	<stop  offset="0.382" style="stop-color:#C4C6C8"/>
	<stop  offset="0.5744" style="stop-color:#B5B7BA"/>
	<stop  offset="0.7191" style="stop-color:#A7A9AC"/>
	<stop  offset="1" style="stop-color:#D1D3D4"/>
	<stop  offset="1" style="stop-color:#A7A9AC"/>
</linearGradient>
<path fill="url(#SVGID_28_)" stroke="url(#SVGID_29_)" stroke-miterlimit="10" d="M96.379,65.196c1.564,0,2.834,1.27,2.834,2.836
	l0,0c0,1.565-1.27,2.835-2.834,2.835h-5.67c-1.565,0-2.835-1.27-2.835-2.835l0,0c0-1.566,1.27-2.836,2.835-2.836H96.379z"/>
<linearGradient id="SVGID_30_" gradientUnits="userSpaceOnUse" x1="19.3301" y1="105.6934" x2="25" y2="105.6934" gradientTransform="matrix(-4.371139e-008 -1 1 -4.371139e-008 -12.1494 101.5347)">
	<stop  offset="0.0056" style="stop-color:#DEE3E6"/>
	<stop  offset="0.2528" style="stop-color:#FFFDE5"/>
	<stop  offset="0.3953" style="stop-color:#F0ECD8"/>
	<stop  offset="0.5955" style="stop-color:#D6CDC1"/>
	<stop  offset="0.7865" style="stop-color:#EDEDEE"/>
	<stop  offset="1" style="stop-color:#D8D5BB"/>
</linearGradient>
<linearGradient id="SVGID_31_" gradientUnits="userSpaceOnUse" x1="18.8301" y1="105.6934" x2="25.5" y2="105.6934" gradientTransform="matrix(-4.371139e-008 -1 1 -4.371139e-008 -12.1494 101.5347)">
	<stop  offset="0.0337" style="stop-color:#A7A9AC"/>
	<stop  offset="0.2325" style="stop-color:#B6B8BA"/>
	<stop  offset="0.382" style="stop-color:#C4C6C8"/>
	<stop  offset="0.5744" style="stop-color:#B5B7BA"/>
	<stop  offset="0.7191" style="stop-color:#A7A9AC"/>
	<stop  offset="1" style="stop-color:#D1D3D4"/>
	<stop  offset="1" style="stop-color:#A7A9AC"/>
</linearGradient>
<path fill="url(#SVGID_30_)" stroke="url(#SVGID_31_)" stroke-miterlimit="10" d="M96.379,76.535c1.564,0,2.834,1.27,2.834,2.835
	l0,0c0,1.565-1.27,2.835-2.834,2.835h-5.67c-1.565,0-2.835-1.27-2.835-2.835l0,0c0-1.565,1.27-2.835,2.835-2.835H96.379z"/>
<linearGradient id="SVGID_32_" gradientUnits="userSpaceOnUse" x1="76.5352" y1="93.543" x2="82.2051" y2="93.543">
	<stop  offset="0.0056" style="stop-color:#DEE3E6"/>
	<stop  offset="0.2528" style="stop-color:#FFFDE5"/>
	<stop  offset="0.3953" style="stop-color:#F0ECD8"/>
	<stop  offset="0.5955" style="stop-color:#D6CDC1"/>
	<stop  offset="0.7865" style="stop-color:#EDEDEE"/>
	<stop  offset="1" style="stop-color:#D8D5BB"/>
</linearGradient>
<linearGradient id="SVGID_33_" gradientUnits="userSpaceOnUse" x1="76.0352" y1="93.543" x2="82.7051" y2="93.543">
	<stop  offset="0.0337" style="stop-color:#A7A9AC"/>
	<stop  offset="0.2325" style="stop-color:#B6B8BA"/>
	<stop  offset="0.382" style="stop-color:#C4C6C8"/>
	<stop  offset="0.5744" style="stop-color:#B5B7BA"/>
	<stop  offset="0.7191" style="stop-color:#A7A9AC"/>
	<stop  offset="1" style="stop-color:#D1D3D4"/>
	<stop  offset="1" style="stop-color:#A7A9AC"/>
</linearGradient>
<path fill="url(#SVGID_32_)" stroke="url(#SVGID_33_)" stroke-miterlimit="10" d="M82.205,96.379c0,1.564-1.27,2.834-2.835,2.834
	l0,0c-1.565,0-2.835-1.27-2.835-2.834v-5.67c0-1.565,1.27-2.835,2.835-2.835l0,0c1.565,0,2.835,1.27,2.835,2.835V96.379z"/>
<linearGradient id="SVGID_34_" gradientUnits="userSpaceOnUse" x1="65.1963" y1="93.543" x2="70.8662" y2="93.543">
	<stop  offset="0.0056" style="stop-color:#DEE3E6"/>
	<stop  offset="0.2528" style="stop-color:#FFFDE5"/>
	<stop  offset="0.3953" style="stop-color:#F0ECD8"/>
	<stop  offset="0.5955" style="stop-color:#D6CDC1"/>
	<stop  offset="0.7865" style="stop-color:#EDEDEE"/>
	<stop  offset="1" style="stop-color:#D8D5BB"/>
</linearGradient>
<linearGradient id="SVGID_35_" gradientUnits="userSpaceOnUse" x1="64.6963" y1="93.543" x2="71.3662" y2="93.543">
	<stop  offset="0.0337" style="stop-color:#A7A9AC"/>
	<stop  offset="0.2325" style="stop-color:#B6B8BA"/>
	<stop  offset="0.382" style="stop-color:#C4C6C8"/>
	<stop  offset="0.5744" style="stop-color:#B5B7BA"/>
	<stop  offset="0.7191" style="stop-color:#A7A9AC"/>
	<stop  offset="1" style="stop-color:#D1D3D4"/>
	<stop  offset="1" style="stop-color:#A7A9AC"/>
</linearGradient>
<path fill="url(#SVGID_34_)" stroke="url(#SVGID_35_)" stroke-miterlimit="10" d="M70.866,96.379c0,1.564-1.27,2.834-2.835,2.834
	l0,0c-1.565,0-2.835-1.27-2.835-2.834v-5.67c0-1.565,1.27-2.835,2.835-2.835l0,0c1.565,0,2.835,1.27,2.835,2.835V96.379z"/>
<linearGradient id="SVGID_36_" gradientUnits="userSpaceOnUse" x1="53.8579" y1="93.543" x2="59.5283" y2="93.543">
	<stop  offset="0.0056" style="stop-color:#DEE3E6"/>
	<stop  offset="0.2528" style="stop-color:#FFFDE5"/>
	<stop  offset="0.3953" style="stop-color:#F0ECD8"/>
	<stop  offset="0.5955" style="stop-color:#D6CDC1"/>
	<stop  offset="0.7865" style="stop-color:#EDEDEE"/>
	<stop  offset="1" style="stop-color:#D8D5BB"/>
</linearGradient>
<linearGradient id="SVGID_37_" gradientUnits="userSpaceOnUse" x1="53.3579" y1="93.543" x2="60.0283" y2="93.543">
	<stop  offset="0.0337" style="stop-color:#A7A9AC"/>
	<stop  offset="0.2325" style="stop-color:#B6B8BA"/>
	<stop  offset="0.382" style="stop-color:#C4C6C8"/>
	<stop  offset="0.5744" style="stop-color:#B5B7BA"/>
	<stop  offset="0.7191" style="stop-color:#A7A9AC"/>
	<stop  offset="1" style="stop-color:#D1D3D4"/>
	<stop  offset="1" style="stop-color:#A7A9AC"/>
</linearGradient>
<path fill="url(#SVGID_36_)" stroke="url(#SVGID_37_)" stroke-miterlimit="10" d="M59.528,96.379c0,1.564-1.27,2.834-2.835,2.834
	l0,0c-1.565,0-2.835-1.27-2.835-2.834v-5.67c0-1.565,1.27-2.835,2.835-2.835l0,0c1.566,0,2.835,1.27,2.835,2.835V96.379z"/>
<linearGradient id="SVGID_38_" gradientUnits="userSpaceOnUse" x1="42.519" y1="93.543" x2="48.1895" y2="93.543">
	<stop  offset="0.0056" style="stop-color:#DEE3E6"/>
	<stop  offset="0.2528" style="stop-color:#FFFDE5"/>
	<stop  offset="0.3953" style="stop-color:#F0ECD8"/>
	<stop  offset="0.5955" style="stop-color:#D6CDC1"/>
	<stop  offset="0.7865" style="stop-color:#EDEDEE"/>
	<stop  offset="1" style="stop-color:#D8D5BB"/>
</linearGradient>
<linearGradient id="SVGID_39_" gradientUnits="userSpaceOnUse" x1="42.019" y1="93.543" x2="48.6895" y2="93.543">
	<stop  offset="0.0337" style="stop-color:#A7A9AC"/>
	<stop  offset="0.2325" style="stop-color:#B6B8BA"/>
	<stop  offset="0.382" style="stop-color:#C4C6C8"/>
	<stop  offset="0.5744" style="stop-color:#B5B7BA"/>
	<stop  offset="0.7191" style="stop-color:#A7A9AC"/>
	<stop  offset="1" style="stop-color:#D1D3D4"/>
	<stop  offset="1" style="stop-color:#A7A9AC"/>
</linearGradient>
<path fill="url(#SVGID_38_)" stroke="url(#SVGID_39_)" stroke-miterlimit="10" d="M48.189,96.379c0,1.564-1.27,2.834-2.835,2.834
	l0,0c-1.565,0-2.835-1.27-2.835-2.834v-5.67c0-1.565,1.27-2.835,2.835-2.835l0,0c1.566,0,2.835,1.27,2.835,2.835V96.379z"/>
<linearGradient id="SVGID_40_" gradientUnits="userSpaceOnUse" x1="31.1807" y1="93.543" x2="36.8511" y2="93.543">
	<stop  offset="0.0056" style="stop-color:#DEE3E6"/>
	<stop  offset="0.2528" style="stop-color:#FFFDE5"/>
	<stop  offset="0.3953" style="stop-color:#F0ECD8"/>
	<stop  offset="0.5955" style="stop-color:#D6CDC1"/>
	<stop  offset="0.7865" style="stop-color:#EDEDEE"/>
	<stop  offset="1" style="stop-color:#D8D5BB"/>
</linearGradient>
<linearGradient id="SVGID_41_" gradientUnits="userSpaceOnUse" x1="30.6807" y1="93.543" x2="37.3511" y2="93.543">
	<stop  offset="0.0337" style="stop-color:#A7A9AC"/>
	<stop  offset="0.2325" style="stop-color:#B6B8BA"/>
	<stop  offset="0.382" style="stop-color:#C4C6C8"/>
	<stop  offset="0.5744" style="stop-color:#B5B7BA"/>
	<stop  offset="0.7191" style="stop-color:#A7A9AC"/>
	<stop  offset="1" style="stop-color:#D1D3D4"/>
	<stop  offset="1" style="stop-color:#A7A9AC"/>
</linearGradient>
<path fill="url(#SVGID_40_)" stroke="url(#SVGID_41_)" stroke-miterlimit="10" d="M36.851,96.379c0,1.564-1.27,2.834-2.835,2.834
	l0,0c-1.565,0-2.835-1.27-2.835-2.834v-5.67c0-1.565,1.27-2.835,2.835-2.835l0,0c1.566,0,2.835,1.27,2.835,2.835V96.379z"/>
</svg>
