<?xml version="1.0" encoding="utf-8"?>
<!-- Generator: Adobe Illustrator 16.0.0, SVG Export Plug-In . SVG Version: 6.00 Build 0)  -->
<!DOCTYPE svg PUBLIC "-//W3C//DTD SVG 1.1//EN" "http://www.w3.org/Graphics/SVG/1.1/DTD/svg11.dtd">
<svg version="1.1" id="Layer_1" xmlns="http://www.w3.org/2000/svg" xmlns:xlink="http://www.w3.org/1999/xlink" x="0px" y="0px"
	 width="113.39px" height="113.39px" viewBox="0 0 113.39 113.39" enable-background="new 0 0 113.39 113.39" xml:space="preserve">
<g>
	<radialGradient id="SVGID_1_" cx="56.6934" cy="56.6934" r="36.1348" gradientUnits="userSpaceOnUse">
		<stop  offset="0.0056" style="stop-color:#FFFEEE"/>
		<stop  offset="0.2849" style="stop-color:#F3F4E9"/>
		<stop  offset="0.7472" style="stop-color:#D7DADE"/>
		<stop  offset="0.8764" style="stop-color:#DCD8D4"/>
	</radialGradient>
	<rect x="14.173" y="28.346" fill="url(#SVGID_1_)" width="85.04" height="56.694"/>
	<g>
		<g>
			<g>
				<g>
					<g>
						<rect x="6.674" y="56.693" fill="none" width="14.999" height="20.848"/>
					</g>
					<g>
						<rect x="13.419" y="61.506" fill="#231F20" width="1.5" height="11.231"/>
					</g>
					<rect x="13.43" y="74.432" fill="#231F20" width="1.5" height="2.246"/>
					<rect x="13.43" y="57.585" fill="#231F20" width="1.5" height="2.246"/>
				</g>
			</g>
			<g>
				<g>
					<g>
						<rect x="6.674" y="35.846" fill="none" width="14.999" height="20.848"/>
					</g>
					<g>
						<rect x="13.419" y="40.659" fill="#231F20" width="1.5" height="11.231"/>
					</g>
					<rect x="13.43" y="53.583" fill="#231F20" width="1.5" height="2.247"/>
					<rect x="13.43" y="36.737" fill="#231F20" width="1.5" height="2.246"/>
				</g>
			</g>
			<g>
				<g>
					<g>
						<rect x="21.673" y="20.847" fill="none" width="17.51" height="14.999"/>
					</g>
					<g>
						<rect x="25.707" y="27.592" fill="#231F20" width="9.433" height="1.5"/>
					</g>
					<rect x="22.397" y="27.603" fill="#231F20" width="1.887" height="1.5"/>
					<rect x="36.547" y="27.603" fill="#231F20" width="1.887" height="1.5"/>
				</g>
			</g>
			<g>
				<g>
					<g>
						<rect x="39.183" y="20.847" fill="none" width="17.511" height="14.999"/>
					</g>
					<g>
						<rect x="43.217" y="27.592" fill="#231F20" width="9.433" height="1.5"/>
					</g>
					<rect x="39.908" y="27.603" fill="#231F20" width="1.887" height="1.5"/>
					<rect x="54.058" y="27.603" fill="#231F20" width="1.887" height="1.5"/>
				</g>
			</g>
			<g>
				<g>
					<g>
						<rect x="56.693" y="20.847" fill="none" width="17.51" height="14.999"/>
					</g>
					<g>
						<rect x="60.728" y="27.592" fill="#231F20" width="9.434" height="1.5"/>
					</g>
					<rect x="57.418" y="27.603" fill="#231F20" width="1.887" height="1.5"/>
					<rect x="71.567" y="27.603" fill="#231F20" width="1.887" height="1.5"/>
				</g>
			</g>
			<g>
				<g>
					<g>
						<rect x="74.203" y="20.847" fill="none" width="17.511" height="14.999"/>
					</g>
					<g>
						<rect x="78.237" y="27.592" fill="#231F20" width="9.434" height="1.5"/>
					</g>
					<rect x="74.929" y="27.603" fill="#231F20" width="1.887" height="1.5"/>
					<rect x="89.078" y="27.603" fill="#231F20" width="1.887" height="1.5"/>
				</g>
			</g>
			<g>
				<g>
					<g>
						<rect x="91.714" y="35.846" fill="none" width="14.998" height="20.848"/>
					</g>
					<g>
						<rect x="98.468" y="40.649" fill="#231F20" width="1.5" height="11.231"/>
					</g>
					<rect x="98.456" y="36.708" fill="#231F20" width="1.5" height="2.247"/>
					<rect x="98.456" y="53.555" fill="#231F20" width="1.5" height="2.246"/>
				</g>
			</g>
			<g>
				<g>
					<g>
						<rect x="91.714" y="56.693" fill="none" width="14.998" height="20.848"/>
					</g>
					<g>
						<rect x="98.468" y="61.496" fill="#231F20" width="1.5" height="11.231"/>
					</g>
					<rect x="98.456" y="57.556" fill="#231F20" width="1.5" height="2.247"/>
					<rect x="98.456" y="74.403" fill="#231F20" width="1.5" height="2.246"/>
				</g>
			</g>
			<g>
				<g>
					<g>
						<rect x="74.203" y="77.541" fill="none" width="17.511" height="14.998"/>
					</g>
					<g>
						<rect x="78.246" y="84.295" fill="#231F20" width="9.434" height="1.5"/>
					</g>
					<rect x="89.102" y="84.283" fill="#231F20" width="1.887" height="1.5"/>
					<rect x="74.952" y="84.283" fill="#231F20" width="1.887" height="1.5"/>
				</g>
			</g>
			<g>
				<g>
					<g>
						<rect x="56.693" y="77.541" fill="none" width="17.51" height="14.998"/>
					</g>
					<g>
						<rect x="60.735" y="84.295" fill="#231F20" width="9.434" height="1.5"/>
					</g>
					<rect x="71.592" y="84.283" fill="#231F20" width="1.887" height="1.5"/>
					<rect x="57.442" y="84.283" fill="#231F20" width="1.887" height="1.5"/>
				</g>
			</g>
			<g>
				<g>
					<g>
						<rect x="39.183" y="77.541" fill="none" width="17.511" height="14.998"/>
					</g>
					<g>
						<rect x="43.226" y="84.295" fill="#231F20" width="9.433" height="1.5"/>
					</g>
					<rect x="54.082" y="84.283" fill="#231F20" width="1.887" height="1.5"/>
					<rect x="39.932" y="84.283" fill="#231F20" width="1.887" height="1.5"/>
				</g>
			</g>
			<g>
				<g>
					<g>
						<rect x="21.673" y="77.541" fill="none" width="17.51" height="14.998"/>
					</g>
					<g>
						<rect x="25.715" y="84.295" fill="#231F20" width="9.433" height="1.5"/>
					</g>
					<rect x="36.571" y="84.283" fill="#231F20" width="1.887" height="1.5"/>
					<rect x="22.421" y="84.283" fill="#231F20" width="1.887" height="1.5"/>
				</g>
			</g>
			<g>
				<polygon fill="#231F20" points="20.869,29.08 20.869,27.58 13.412,27.58 13.412,35.102 14.917,35.102 14.917,29.08 				"/>
			</g>
			<g>
				<polygon fill="#231F20" points="98.479,35.042 99.979,35.042 99.979,27.584 92.458,27.584 92.458,29.09 98.479,29.09 				"/>
			</g>
			<g>
				<polygon fill="#231F20" points="92.518,84.307 92.518,85.807 99.975,85.807 99.975,78.285 98.469,78.285 98.469,84.307 				"/>
			</g>
			<g>
				<polygon fill="#231F20" points="14.907,78.344 13.407,78.344 13.407,85.802 20.929,85.802 20.929,84.296 14.907,84.296 				"/>
			</g>
		</g>
	</g>
</g>
<g>
	<g>
		<g>
			<g>
				<g>
					<g>
						<rect x="17.008" y="38.77" fill="none" width="6.614" height="7.499"/>
					</g>
					<rect x="21.906" y="42.254" fill-rule="evenodd" clip-rule="evenodd" fill="#231F20" width="1.228" height="0.75"/>
					<rect x="19.704" y="42.254" fill-rule="evenodd" clip-rule="evenodd" fill="#231F20" width="1.228" height="0.75"/>
					<rect x="17.509" y="42.254" fill-rule="evenodd" clip-rule="evenodd" fill="#231F20" width="1.228" height="0.75"/>
				</g>
			</g>
			<g>
				<g>
					<g>
						<rect x="23.623" y="38.77" fill="none" width="6.614" height="7.499"/>
					</g>
					<rect x="28.52" y="42.254" fill-rule="evenodd" clip-rule="evenodd" fill="#231F20" width="1.228" height="0.75"/>
					<rect x="26.318" y="42.254" fill-rule="evenodd" clip-rule="evenodd" fill="#231F20" width="1.228" height="0.75"/>
					<rect x="24.124" y="42.254" fill-rule="evenodd" clip-rule="evenodd" fill="#231F20" width="1.228" height="0.75"/>
				</g>
			</g>
			<g>
				<g>
					<g>
						<rect x="30.236" y="38.77" fill="none" width="6.614" height="7.499"/>
					</g>
					<rect x="35.134" y="42.254" fill-rule="evenodd" clip-rule="evenodd" fill="#231F20" width="1.228" height="0.75"/>
					<rect x="32.933" y="42.254" fill-rule="evenodd" clip-rule="evenodd" fill="#231F20" width="1.228" height="0.75"/>
					<rect x="30.738" y="42.254" fill-rule="evenodd" clip-rule="evenodd" fill="#231F20" width="1.228" height="0.75"/>
				</g>
			</g>
			<g>
				<g>
					<g>
						<rect x="36.851" y="38.77" fill="none" width="6.614" height="7.499"/>
					</g>
					<rect x="41.749" y="42.254" fill-rule="evenodd" clip-rule="evenodd" fill="#231F20" width="1.228" height="0.75"/>
					<rect x="39.546" y="42.254" fill-rule="evenodd" clip-rule="evenodd" fill="#231F20" width="1.228" height="0.75"/>
					<rect x="37.352" y="42.254" fill-rule="evenodd" clip-rule="evenodd" fill="#231F20" width="1.228" height="0.75"/>
				</g>
			</g>
			<g>
				<g>
					<g>
						<rect x="43.465" y="38.77" fill="none" width="6.614" height="7.499"/>
					</g>
					<rect x="48.363" y="42.254" fill-rule="evenodd" clip-rule="evenodd" fill="#231F20" width="1.228" height="0.75"/>
					<rect x="46.161" y="42.254" fill-rule="evenodd" clip-rule="evenodd" fill="#231F20" width="1.228" height="0.75"/>
					<rect x="43.966" y="42.254" fill-rule="evenodd" clip-rule="evenodd" fill="#231F20" width="1.228" height="0.75"/>
				</g>
			</g>
			<g>
				<g>
					<g>
						<rect x="50.079" y="38.77" fill="none" width="6.614" height="7.499"/>
					</g>
					<rect x="54.977" y="42.254" fill-rule="evenodd" clip-rule="evenodd" fill="#231F20" width="1.228" height="0.75"/>
					<rect x="52.775" y="42.254" fill-rule="evenodd" clip-rule="evenodd" fill="#231F20" width="1.228" height="0.75"/>
					<rect x="50.58" y="42.254" fill-rule="evenodd" clip-rule="evenodd" fill="#231F20" width="1.228" height="0.75"/>
				</g>
			</g>
			<g>
				<g>
					<g>
						<rect x="56.693" y="38.77" fill="none" width="6.614" height="7.499"/>
					</g>
					<rect x="61.591" y="42.254" fill-rule="evenodd" clip-rule="evenodd" fill="#231F20" width="1.228" height="0.75"/>
					<rect x="59.389" y="42.254" fill-rule="evenodd" clip-rule="evenodd" fill="#231F20" width="1.228" height="0.75"/>
					<rect x="57.194" y="42.254" fill-rule="evenodd" clip-rule="evenodd" fill="#231F20" width="1.228" height="0.75"/>
				</g>
			</g>
			<g>
				<g>
					<g>
						<rect x="63.308" y="38.77" fill="none" width="6.614" height="7.499"/>
					</g>
					<rect x="68.205" y="42.254" fill-rule="evenodd" clip-rule="evenodd" fill="#231F20" width="1.228" height="0.75"/>
					<rect x="66.003" y="42.254" fill-rule="evenodd" clip-rule="evenodd" fill="#231F20" width="1.228" height="0.75"/>
					<rect x="63.809" y="42.254" fill-rule="evenodd" clip-rule="evenodd" fill="#231F20" width="1.228" height="0.75"/>
				</g>
			</g>
			<g>
				<g>
					<g>
						<rect x="69.922" y="38.77" fill="none" width="6.613" height="7.499"/>
					</g>
					<rect x="74.819" y="42.254" fill-rule="evenodd" clip-rule="evenodd" fill="#231F20" width="1.228" height="0.75"/>
					<rect x="72.617" y="42.254" fill-rule="evenodd" clip-rule="evenodd" fill="#231F20" width="1.228" height="0.75"/>
					<rect x="70.423" y="42.254" fill-rule="evenodd" clip-rule="evenodd" fill="#231F20" width="1.228" height="0.75"/>
				</g>
			</g>
			<g>
				<g>
					<g>
						<rect x="76.535" y="38.77" fill="none" width="6.614" height="7.499"/>
					</g>
					<rect x="81.434" y="42.254" fill-rule="evenodd" clip-rule="evenodd" fill="#231F20" width="1.228" height="0.75"/>
					<rect x="79.231" y="42.254" fill-rule="evenodd" clip-rule="evenodd" fill="#231F20" width="1.228" height="0.75"/>
					<rect x="77.037" y="42.254" fill-rule="evenodd" clip-rule="evenodd" fill="#231F20" width="1.228" height="0.75"/>
				</g>
			</g>
			<g>
				<g>
					<g>
						<rect x="83.149" y="38.77" fill="none" width="6.614" height="7.499"/>
					</g>
					<rect x="88.048" y="42.254" fill-rule="evenodd" clip-rule="evenodd" fill="#231F20" width="1.228" height="0.75"/>
					<rect x="85.846" y="42.254" fill-rule="evenodd" clip-rule="evenodd" fill="#231F20" width="1.228" height="0.75"/>
					<rect x="83.65" y="42.254" fill-rule="evenodd" clip-rule="evenodd" fill="#231F20" width="1.229" height="0.75"/>
				</g>
			</g>
			<g>
				<g>
					<g>
						<rect x="89.764" y="38.77" fill="none" width="6.614" height="7.499"/>
					</g>
					<rect x="94.661" y="42.254" fill-rule="evenodd" clip-rule="evenodd" fill="#231F20" width="1.229" height="0.75"/>
					<rect x="92.46" y="42.254" fill-rule="evenodd" clip-rule="evenodd" fill="#231F20" width="1.228" height="0.75"/>
					<rect x="90.265" y="42.254" fill-rule="evenodd" clip-rule="evenodd" fill="#231F20" width="1.228" height="0.75"/>
				</g>
			</g>
		</g>
	</g>
</g>
<g>
	<g>
		<g>
			<g>
				<g>
					<g>
						<rect x="17.008" y="52.943" fill="none" width="6.614" height="7.499"/>
					</g>
					<rect x="21.906" y="56.428" fill-rule="evenodd" clip-rule="evenodd" fill="#231F20" width="1.228" height="0.75"/>
					<rect x="19.704" y="56.428" fill-rule="evenodd" clip-rule="evenodd" fill="#231F20" width="1.228" height="0.75"/>
					<rect x="17.509" y="56.428" fill-rule="evenodd" clip-rule="evenodd" fill="#231F20" width="1.228" height="0.75"/>
				</g>
			</g>
			<g>
				<g>
					<g>
						<rect x="23.623" y="52.943" fill="none" width="6.614" height="7.499"/>
					</g>
					<rect x="28.52" y="56.428" fill-rule="evenodd" clip-rule="evenodd" fill="#231F20" width="1.228" height="0.75"/>
					<rect x="26.318" y="56.428" fill-rule="evenodd" clip-rule="evenodd" fill="#231F20" width="1.228" height="0.75"/>
					<rect x="24.124" y="56.428" fill-rule="evenodd" clip-rule="evenodd" fill="#231F20" width="1.228" height="0.75"/>
				</g>
			</g>
			<g>
				<g>
					<g>
						<rect x="30.236" y="52.943" fill="none" width="6.614" height="7.499"/>
					</g>
					<rect x="35.134" y="56.428" fill-rule="evenodd" clip-rule="evenodd" fill="#231F20" width="1.228" height="0.75"/>
					<rect x="32.933" y="56.428" fill-rule="evenodd" clip-rule="evenodd" fill="#231F20" width="1.228" height="0.75"/>
					<rect x="30.738" y="56.428" fill-rule="evenodd" clip-rule="evenodd" fill="#231F20" width="1.228" height="0.75"/>
				</g>
			</g>
			<g>
				<g>
					<g>
						<rect x="36.851" y="52.943" fill="none" width="6.614" height="7.499"/>
					</g>
					<rect x="41.749" y="56.428" fill-rule="evenodd" clip-rule="evenodd" fill="#231F20" width="1.228" height="0.75"/>
					<rect x="39.546" y="56.428" fill-rule="evenodd" clip-rule="evenodd" fill="#231F20" width="1.228" height="0.75"/>
					<rect x="37.352" y="56.428" fill-rule="evenodd" clip-rule="evenodd" fill="#231F20" width="1.228" height="0.75"/>
				</g>
			</g>
			<g>
				<g>
					<g>
						<rect x="43.465" y="52.943" fill="none" width="6.614" height="7.499"/>
					</g>
					<rect x="48.363" y="56.428" fill-rule="evenodd" clip-rule="evenodd" fill="#231F20" width="1.228" height="0.75"/>
					<rect x="46.161" y="56.428" fill-rule="evenodd" clip-rule="evenodd" fill="#231F20" width="1.228" height="0.75"/>
					<rect x="43.966" y="56.428" fill-rule="evenodd" clip-rule="evenodd" fill="#231F20" width="1.228" height="0.75"/>
				</g>
			</g>
			<g>
				<g>
					<g>
						<rect x="50.079" y="52.943" fill="none" width="6.614" height="7.499"/>
					</g>
					<rect x="54.977" y="56.428" fill-rule="evenodd" clip-rule="evenodd" fill="#231F20" width="1.228" height="0.75"/>
					<rect x="52.775" y="56.428" fill-rule="evenodd" clip-rule="evenodd" fill="#231F20" width="1.228" height="0.75"/>
					<rect x="50.58" y="56.428" fill-rule="evenodd" clip-rule="evenodd" fill="#231F20" width="1.228" height="0.75"/>
				</g>
			</g>
			<g>
				<g>
					<g>
						<rect x="56.693" y="52.943" fill="none" width="6.614" height="7.499"/>
					</g>
					<rect x="61.591" y="56.428" fill-rule="evenodd" clip-rule="evenodd" fill="#231F20" width="1.228" height="0.75"/>
					<rect x="59.389" y="56.428" fill-rule="evenodd" clip-rule="evenodd" fill="#231F20" width="1.228" height="0.75"/>
					<rect x="57.194" y="56.428" fill-rule="evenodd" clip-rule="evenodd" fill="#231F20" width="1.228" height="0.75"/>
				</g>
			</g>
			<g>
				<g>
					<g>
						<rect x="63.308" y="52.943" fill="none" width="6.614" height="7.499"/>
					</g>
					<rect x="68.205" y="56.428" fill-rule="evenodd" clip-rule="evenodd" fill="#231F20" width="1.228" height="0.75"/>
					<rect x="66.003" y="56.428" fill-rule="evenodd" clip-rule="evenodd" fill="#231F20" width="1.228" height="0.75"/>
					<rect x="63.809" y="56.428" fill-rule="evenodd" clip-rule="evenodd" fill="#231F20" width="1.228" height="0.75"/>
				</g>
			</g>
			<g>
				<g>
					<g>
						<rect x="69.922" y="52.943" fill="none" width="6.613" height="7.499"/>
					</g>
					<rect x="74.819" y="56.428" fill-rule="evenodd" clip-rule="evenodd" fill="#231F20" width="1.228" height="0.75"/>
					<rect x="72.617" y="56.428" fill-rule="evenodd" clip-rule="evenodd" fill="#231F20" width="1.228" height="0.75"/>
					<rect x="70.423" y="56.428" fill-rule="evenodd" clip-rule="evenodd" fill="#231F20" width="1.228" height="0.75"/>
				</g>
			</g>
			<g>
				<g>
					<g>
						<rect x="76.535" y="52.943" fill="none" width="6.614" height="7.499"/>
					</g>
					<rect x="81.434" y="56.428" fill-rule="evenodd" clip-rule="evenodd" fill="#231F20" width="1.228" height="0.75"/>
					<rect x="79.231" y="56.428" fill-rule="evenodd" clip-rule="evenodd" fill="#231F20" width="1.228" height="0.75"/>
					<rect x="77.037" y="56.428" fill-rule="evenodd" clip-rule="evenodd" fill="#231F20" width="1.228" height="0.75"/>
				</g>
			</g>
			<g>
				<g>
					<g>
						<rect x="83.149" y="52.943" fill="none" width="6.614" height="7.499"/>
					</g>
					<rect x="88.048" y="56.428" fill-rule="evenodd" clip-rule="evenodd" fill="#231F20" width="1.228" height="0.75"/>
					<rect x="85.846" y="56.428" fill-rule="evenodd" clip-rule="evenodd" fill="#231F20" width="1.228" height="0.75"/>
					<rect x="83.65" y="56.428" fill-rule="evenodd" clip-rule="evenodd" fill="#231F20" width="1.229" height="0.75"/>
				</g>
			</g>
			<g>
				<g>
					<g>
						<rect x="89.764" y="52.943" fill="none" width="6.614" height="7.499"/>
					</g>
					<rect x="94.661" y="56.428" fill-rule="evenodd" clip-rule="evenodd" fill="#231F20" width="1.229" height="0.75"/>
					<rect x="92.46" y="56.428" fill-rule="evenodd" clip-rule="evenodd" fill="#231F20" width="1.228" height="0.75"/>
					<rect x="90.265" y="56.428" fill-rule="evenodd" clip-rule="evenodd" fill="#231F20" width="1.228" height="0.75"/>
				</g>
			</g>
		</g>
	</g>
</g>
<g>
	<g>
		<g>
			<g>
				<g>
					<g>
						<rect x="17.008" y="67.116" fill="none" width="6.614" height="7.5"/>
					</g>
					<rect x="21.906" y="70.601" fill-rule="evenodd" clip-rule="evenodd" fill="#231F20" width="1.228" height="0.75"/>
					<rect x="19.704" y="70.601" fill-rule="evenodd" clip-rule="evenodd" fill="#231F20" width="1.228" height="0.75"/>
					<rect x="17.509" y="70.601" fill-rule="evenodd" clip-rule="evenodd" fill="#231F20" width="1.228" height="0.75"/>
				</g>
			</g>
			<g>
				<g>
					<g>
						<rect x="23.623" y="67.116" fill="none" width="6.614" height="7.5"/>
					</g>
					<rect x="28.52" y="70.601" fill-rule="evenodd" clip-rule="evenodd" fill="#231F20" width="1.228" height="0.75"/>
					<rect x="26.318" y="70.601" fill-rule="evenodd" clip-rule="evenodd" fill="#231F20" width="1.228" height="0.75"/>
					<rect x="24.124" y="70.601" fill-rule="evenodd" clip-rule="evenodd" fill="#231F20" width="1.228" height="0.75"/>
				</g>
			</g>
			<g>
				<g>
					<g>
						<rect x="30.236" y="67.116" fill="none" width="6.614" height="7.5"/>
					</g>
					<rect x="35.134" y="70.601" fill-rule="evenodd" clip-rule="evenodd" fill="#231F20" width="1.228" height="0.75"/>
					<rect x="32.933" y="70.601" fill-rule="evenodd" clip-rule="evenodd" fill="#231F20" width="1.228" height="0.75"/>
					<rect x="30.738" y="70.601" fill-rule="evenodd" clip-rule="evenodd" fill="#231F20" width="1.228" height="0.75"/>
				</g>
			</g>
			<g>
				<g>
					<g>
						<rect x="36.851" y="67.116" fill="none" width="6.614" height="7.5"/>
					</g>
					<rect x="41.749" y="70.601" fill-rule="evenodd" clip-rule="evenodd" fill="#231F20" width="1.228" height="0.75"/>
					<rect x="39.546" y="70.601" fill-rule="evenodd" clip-rule="evenodd" fill="#231F20" width="1.228" height="0.75"/>
					<rect x="37.352" y="70.601" fill-rule="evenodd" clip-rule="evenodd" fill="#231F20" width="1.228" height="0.75"/>
				</g>
			</g>
			<g>
				<g>
					<g>
						<rect x="43.465" y="67.116" fill="none" width="6.614" height="7.5"/>
					</g>
					<rect x="48.363" y="70.601" fill-rule="evenodd" clip-rule="evenodd" fill="#231F20" width="1.228" height="0.75"/>
					<rect x="46.161" y="70.601" fill-rule="evenodd" clip-rule="evenodd" fill="#231F20" width="1.228" height="0.75"/>
					<rect x="43.966" y="70.601" fill-rule="evenodd" clip-rule="evenodd" fill="#231F20" width="1.228" height="0.75"/>
				</g>
			</g>
			<g>
				<g>
					<g>
						<rect x="50.079" y="67.116" fill="none" width="6.614" height="7.5"/>
					</g>
					<rect x="54.977" y="70.601" fill-rule="evenodd" clip-rule="evenodd" fill="#231F20" width="1.228" height="0.75"/>
					<rect x="52.775" y="70.601" fill-rule="evenodd" clip-rule="evenodd" fill="#231F20" width="1.228" height="0.75"/>
					<rect x="50.58" y="70.601" fill-rule="evenodd" clip-rule="evenodd" fill="#231F20" width="1.228" height="0.75"/>
				</g>
			</g>
			<g>
				<g>
					<g>
						<rect x="56.693" y="67.116" fill="none" width="6.614" height="7.5"/>
					</g>
					<rect x="61.591" y="70.601" fill-rule="evenodd" clip-rule="evenodd" fill="#231F20" width="1.228" height="0.75"/>
					<rect x="59.389" y="70.601" fill-rule="evenodd" clip-rule="evenodd" fill="#231F20" width="1.228" height="0.75"/>
					<rect x="57.194" y="70.601" fill-rule="evenodd" clip-rule="evenodd" fill="#231F20" width="1.228" height="0.75"/>
				</g>
			</g>
			<g>
				<g>
					<g>
						<rect x="63.308" y="67.116" fill="none" width="6.614" height="7.5"/>
					</g>
					<rect x="68.205" y="70.601" fill-rule="evenodd" clip-rule="evenodd" fill="#231F20" width="1.228" height="0.75"/>
					<rect x="66.003" y="70.601" fill-rule="evenodd" clip-rule="evenodd" fill="#231F20" width="1.228" height="0.75"/>
					<rect x="63.809" y="70.601" fill-rule="evenodd" clip-rule="evenodd" fill="#231F20" width="1.228" height="0.75"/>
				</g>
			</g>
			<g>
				<g>
					<g>
						<rect x="69.922" y="67.116" fill="none" width="6.613" height="7.5"/>
					</g>
					<rect x="74.819" y="70.601" fill-rule="evenodd" clip-rule="evenodd" fill="#231F20" width="1.228" height="0.75"/>
					<rect x="72.617" y="70.601" fill-rule="evenodd" clip-rule="evenodd" fill="#231F20" width="1.228" height="0.75"/>
					<rect x="70.423" y="70.601" fill-rule="evenodd" clip-rule="evenodd" fill="#231F20" width="1.228" height="0.75"/>
				</g>
			</g>
			<g>
				<g>
					<g>
						<rect x="76.535" y="67.116" fill="none" width="6.614" height="7.5"/>
					</g>
					<rect x="81.434" y="70.601" fill-rule="evenodd" clip-rule="evenodd" fill="#231F20" width="1.228" height="0.75"/>
					<rect x="79.231" y="70.601" fill-rule="evenodd" clip-rule="evenodd" fill="#231F20" width="1.228" height="0.75"/>
					<rect x="77.037" y="70.601" fill-rule="evenodd" clip-rule="evenodd" fill="#231F20" width="1.228" height="0.75"/>
				</g>
			</g>
			<g>
				<g>
					<g>
						<rect x="83.149" y="67.116" fill="none" width="6.614" height="7.5"/>
					</g>
					<rect x="88.048" y="70.601" fill-rule="evenodd" clip-rule="evenodd" fill="#231F20" width="1.228" height="0.75"/>
					<rect x="85.846" y="70.601" fill-rule="evenodd" clip-rule="evenodd" fill="#231F20" width="1.228" height="0.75"/>
					<rect x="83.65" y="70.601" fill-rule="evenodd" clip-rule="evenodd" fill="#231F20" width="1.229" height="0.75"/>
				</g>
			</g>
			<g>
				<g>
					<g>
						<rect x="89.764" y="67.116" fill="none" width="6.614" height="7.5"/>
					</g>
					<rect x="94.661" y="70.601" fill-rule="evenodd" clip-rule="evenodd" fill="#231F20" width="1.229" height="0.75"/>
					<rect x="92.46" y="70.601" fill-rule="evenodd" clip-rule="evenodd" fill="#231F20" width="1.228" height="0.75"/>
					<rect x="90.265" y="70.601" fill-rule="evenodd" clip-rule="evenodd" fill="#231F20" width="1.228" height="0.75"/>
				</g>
			</g>
		</g>
	</g>
</g>
<g>
	<g>
		<g>
			<g>
				<g>
					<g>
						<rect x="18.928" y="72" fill="none" width="7.499" height="10.205"/>
					</g>
					<g>
						<rect x="22.3" y="74.356" fill="#231F20" width="0.75" height="5.497"/>
					</g>
					<rect x="22.306" y="80.683" fill="#231F20" width="0.75" height="1.1"/>
					<rect x="22.306" y="72.437" fill="#231F20" width="0.75" height="1.1"/>
				</g>
			</g>
			<g>
				<g>
					<g>
						<rect x="18.928" y="61.796" fill="none" width="7.499" height="10.204"/>
					</g>
					<g>
						<rect x="22.3" y="64.151" fill="#231F20" width="0.75" height="5.498"/>
					</g>
					<rect x="22.306" y="70.479" fill="#231F20" width="0.75" height="1.1"/>
					<rect x="22.306" y="62.232" fill="#231F20" width="0.75" height="1.099"/>
				</g>
			</g>
			<g>
				<g>
					<g>
						<rect x="18.928" y="51.591" fill="none" width="7.499" height="10.205"/>
					</g>
					<g>
						<rect x="22.3" y="53.947" fill="#231F20" width="0.75" height="5.498"/>
					</g>
					<rect x="22.306" y="60.273" fill="#231F20" width="0.75" height="1.1"/>
					<rect x="22.306" y="52.027" fill="#231F20" width="0.75" height="1.099"/>
				</g>
			</g>
			<g>
				<g>
					<g>
						<rect x="18.928" y="41.386" fill="none" width="7.499" height="10.205"/>
					</g>
					<g>
						<rect x="22.3" y="43.742" fill="#231F20" width="0.75" height="5.498"/>
					</g>
					<rect x="22.306" y="50.069" fill="#231F20" width="0.75" height="1.099"/>
					<rect x="22.306" y="41.822" fill="#231F20" width="0.75" height="1.1"/>
				</g>
			</g>
			<g>
				<g>
					<g>
						<rect x="18.928" y="31.181" fill="none" width="7.499" height="10.205"/>
					</g>
					<g>
						<rect x="22.3" y="33.537" fill="#231F20" width="0.75" height="5.498"/>
					</g>
					<rect x="22.306" y="39.864" fill="#231F20" width="0.75" height="1.1"/>
					<rect x="22.306" y="31.618" fill="#231F20" width="0.75" height="1.1"/>
				</g>
			</g>
		</g>
	</g>
</g>
<g>
	<g>
		<g>
			<g>
				<g>
					<g>
						<rect x="27.432" y="72" fill="none" width="7.499" height="10.205"/>
					</g>
					<g>
						<rect x="30.804" y="74.356" fill="#231F20" width="0.75" height="5.497"/>
					</g>
					<rect x="30.81" y="80.683" fill="#231F20" width="0.75" height="1.1"/>
					<rect x="30.81" y="72.437" fill="#231F20" width="0.75" height="1.1"/>
				</g>
			</g>
			<g>
				<g>
					<g>
						<rect x="27.432" y="61.796" fill="none" width="7.499" height="10.204"/>
					</g>
					<g>
						<rect x="30.804" y="64.151" fill="#231F20" width="0.75" height="5.498"/>
					</g>
					<rect x="30.81" y="70.479" fill="#231F20" width="0.75" height="1.1"/>
					<rect x="30.81" y="62.232" fill="#231F20" width="0.75" height="1.099"/>
				</g>
			</g>
			<g>
				<g>
					<g>
						<rect x="27.432" y="51.591" fill="none" width="7.499" height="10.205"/>
					</g>
					<g>
						<rect x="30.804" y="53.947" fill="#231F20" width="0.75" height="5.498"/>
					</g>
					<rect x="30.81" y="60.273" fill="#231F20" width="0.75" height="1.1"/>
					<rect x="30.81" y="52.027" fill="#231F20" width="0.75" height="1.099"/>
				</g>
			</g>
			<g>
				<g>
					<g>
						<rect x="27.432" y="41.386" fill="none" width="7.499" height="10.205"/>
					</g>
					<g>
						<rect x="30.804" y="43.742" fill="#231F20" width="0.75" height="5.498"/>
					</g>
					<rect x="30.81" y="50.069" fill="#231F20" width="0.75" height="1.099"/>
					<rect x="30.81" y="41.822" fill="#231F20" width="0.75" height="1.1"/>
				</g>
			</g>
			<g>
				<g>
					<g>
						<rect x="27.432" y="31.181" fill="none" width="7.499" height="10.205"/>
					</g>
					<g>
						<rect x="30.804" y="33.537" fill="#231F20" width="0.75" height="5.498"/>
					</g>
					<rect x="30.81" y="39.864" fill="#231F20" width="0.75" height="1.1"/>
					<rect x="30.81" y="31.618" fill="#231F20" width="0.75" height="1.1"/>
				</g>
			</g>
		</g>
	</g>
</g>
<g>
	<g>
		<g>
			<g>
				<g>
					<g>
						<rect x="35.936" y="72" fill="none" width="7.499" height="10.205"/>
					</g>
					<g>
						<rect x="39.308" y="74.356" fill="#231F20" width="0.75" height="5.497"/>
					</g>
					<rect x="39.313" y="80.683" fill="#231F20" width="0.75" height="1.1"/>
					<rect x="39.313" y="72.437" fill="#231F20" width="0.75" height="1.1"/>
				</g>
			</g>
			<g>
				<g>
					<g>
						<rect x="35.936" y="61.796" fill="none" width="7.499" height="10.204"/>
					</g>
					<g>
						<rect x="39.308" y="64.151" fill="#231F20" width="0.75" height="5.498"/>
					</g>
					<rect x="39.313" y="70.479" fill="#231F20" width="0.75" height="1.1"/>
					<rect x="39.313" y="62.232" fill="#231F20" width="0.75" height="1.099"/>
				</g>
			</g>
			<g>
				<g>
					<g>
						<rect x="35.936" y="51.591" fill="none" width="7.499" height="10.205"/>
					</g>
					<g>
						<rect x="39.308" y="53.947" fill="#231F20" width="0.75" height="5.498"/>
					</g>
					<rect x="39.313" y="60.273" fill="#231F20" width="0.75" height="1.1"/>
					<rect x="39.313" y="52.027" fill="#231F20" width="0.75" height="1.099"/>
				</g>
			</g>
			<g>
				<g>
					<g>
						<rect x="35.936" y="41.386" fill="none" width="7.499" height="10.205"/>
					</g>
					<g>
						<rect x="39.308" y="43.742" fill="#231F20" width="0.75" height="5.498"/>
					</g>
					<rect x="39.313" y="50.069" fill="#231F20" width="0.75" height="1.099"/>
					<rect x="39.313" y="41.822" fill="#231F20" width="0.75" height="1.1"/>
				</g>
			</g>
			<g>
				<g>
					<g>
						<rect x="35.936" y="31.181" fill="none" width="7.499" height="10.205"/>
					</g>
					<g>
						<rect x="39.308" y="33.537" fill="#231F20" width="0.75" height="5.498"/>
					</g>
					<rect x="39.313" y="39.864" fill="#231F20" width="0.75" height="1.1"/>
					<rect x="39.313" y="31.618" fill="#231F20" width="0.75" height="1.1"/>
				</g>
			</g>
		</g>
	</g>
</g>
<g>
	<g>
		<g>
			<g>
				<g>
					<g>
						<rect x="44.439" y="72" fill="none" width="7.499" height="10.205"/>
					</g>
					<g>
						<rect x="47.812" y="74.356" fill="#231F20" width="0.75" height="5.497"/>
					</g>
					<rect x="47.817" y="80.683" fill="#231F20" width="0.75" height="1.1"/>
					<rect x="47.817" y="72.437" fill="#231F20" width="0.75" height="1.1"/>
				</g>
			</g>
			<g>
				<g>
					<g>
						<rect x="44.439" y="61.796" fill="none" width="7.499" height="10.204"/>
					</g>
					<g>
						<rect x="47.812" y="64.151" fill="#231F20" width="0.75" height="5.498"/>
					</g>
					<rect x="47.817" y="70.479" fill="#231F20" width="0.75" height="1.1"/>
					<rect x="47.817" y="62.232" fill="#231F20" width="0.75" height="1.099"/>
				</g>
			</g>
			<g>
				<g>
					<g>
						<rect x="44.439" y="51.591" fill="none" width="7.499" height="10.205"/>
					</g>
					<g>
						<rect x="47.812" y="53.947" fill="#231F20" width="0.75" height="5.498"/>
					</g>
					<rect x="47.817" y="60.273" fill="#231F20" width="0.75" height="1.1"/>
					<rect x="47.817" y="52.027" fill="#231F20" width="0.75" height="1.099"/>
				</g>
			</g>
			<g>
				<g>
					<g>
						<rect x="44.439" y="41.386" fill="none" width="7.499" height="10.205"/>
					</g>
					<g>
						<rect x="47.812" y="43.742" fill="#231F20" width="0.75" height="5.498"/>
					</g>
					<rect x="47.817" y="50.069" fill="#231F20" width="0.75" height="1.099"/>
					<rect x="47.817" y="41.822" fill="#231F20" width="0.75" height="1.1"/>
				</g>
			</g>
			<g>
				<g>
					<g>
						<rect x="44.439" y="31.181" fill="none" width="7.499" height="10.205"/>
					</g>
					<g>
						<rect x="47.812" y="33.537" fill="#231F20" width="0.75" height="5.498"/>
					</g>
					<rect x="47.817" y="39.864" fill="#231F20" width="0.75" height="1.1"/>
					<rect x="47.817" y="31.618" fill="#231F20" width="0.75" height="1.1"/>
				</g>
			</g>
		</g>
	</g>
</g>
<g>
	<g>
		<g>
			<g>
				<g>
					<g>
						<rect x="52.943" y="72" fill="none" width="7.499" height="10.205"/>
					</g>
					<g>
						<rect x="56.315" y="74.356" fill="#231F20" width="0.75" height="5.497"/>
					</g>
					<rect x="56.321" y="80.683" fill="#231F20" width="0.75" height="1.1"/>
					<rect x="56.321" y="72.437" fill="#231F20" width="0.75" height="1.1"/>
				</g>
			</g>
			<g>
				<g>
					<g>
						<rect x="52.943" y="61.796" fill="none" width="7.499" height="10.204"/>
					</g>
					<g>
						<rect x="56.315" y="64.151" fill="#231F20" width="0.75" height="5.498"/>
					</g>
					<rect x="56.321" y="70.479" fill="#231F20" width="0.75" height="1.1"/>
					<rect x="56.321" y="62.232" fill="#231F20" width="0.75" height="1.099"/>
				</g>
			</g>
			<g>
				<g>
					<g>
						<rect x="52.943" y="51.591" fill="none" width="7.499" height="10.205"/>
					</g>
					<g>
						<rect x="56.315" y="53.947" fill="#231F20" width="0.75" height="5.498"/>
					</g>
					<rect x="56.321" y="60.273" fill="#231F20" width="0.75" height="1.1"/>
					<rect x="56.321" y="52.027" fill="#231F20" width="0.75" height="1.099"/>
				</g>
			</g>
			<g>
				<g>
					<g>
						<rect x="52.943" y="41.386" fill="none" width="7.499" height="10.205"/>
					</g>
					<g>
						<rect x="56.315" y="43.742" fill="#231F20" width="0.75" height="5.498"/>
					</g>
					<rect x="56.321" y="50.069" fill="#231F20" width="0.75" height="1.099"/>
					<rect x="56.321" y="41.822" fill="#231F20" width="0.75" height="1.1"/>
				</g>
			</g>
			<g>
				<g>
					<g>
						<rect x="52.943" y="31.181" fill="none" width="7.499" height="10.205"/>
					</g>
					<g>
						<rect x="56.315" y="33.537" fill="#231F20" width="0.75" height="5.498"/>
					</g>
					<rect x="56.321" y="39.864" fill="#231F20" width="0.75" height="1.1"/>
					<rect x="56.321" y="31.618" fill="#231F20" width="0.75" height="1.1"/>
				</g>
			</g>
		</g>
	</g>
</g>
<g>
	<g>
		<g>
			<g>
				<g>
					<g>
						<rect x="61.447" y="72" fill="none" width="7.5" height="10.205"/>
					</g>
					<g>
						<rect x="64.82" y="74.356" fill="#231F20" width="0.75" height="5.497"/>
					</g>
					<rect x="64.825" y="80.683" fill="#231F20" width="0.75" height="1.1"/>
					<rect x="64.825" y="72.437" fill="#231F20" width="0.75" height="1.1"/>
				</g>
			</g>
			<g>
				<g>
					<g>
						<rect x="61.447" y="61.796" fill="none" width="7.5" height="10.204"/>
					</g>
					<g>
						<rect x="64.82" y="64.151" fill="#231F20" width="0.75" height="5.498"/>
					</g>
					<rect x="64.825" y="70.479" fill="#231F20" width="0.75" height="1.1"/>
					<rect x="64.825" y="62.232" fill="#231F20" width="0.75" height="1.099"/>
				</g>
			</g>
			<g>
				<g>
					<g>
						<rect x="61.447" y="51.591" fill="none" width="7.5" height="10.205"/>
					</g>
					<g>
						<rect x="64.82" y="53.947" fill="#231F20" width="0.75" height="5.498"/>
					</g>
					<rect x="64.825" y="60.273" fill="#231F20" width="0.75" height="1.1"/>
					<rect x="64.825" y="52.027" fill="#231F20" width="0.75" height="1.099"/>
				</g>
			</g>
			<g>
				<g>
					<g>
						<rect x="61.447" y="41.386" fill="none" width="7.5" height="10.205"/>
					</g>
					<g>
						<rect x="64.82" y="43.742" fill="#231F20" width="0.75" height="5.498"/>
					</g>
					<rect x="64.825" y="50.069" fill="#231F20" width="0.75" height="1.099"/>
					<rect x="64.825" y="41.822" fill="#231F20" width="0.75" height="1.1"/>
				</g>
			</g>
			<g>
				<g>
					<g>
						<rect x="61.447" y="31.181" fill="none" width="7.5" height="10.205"/>
					</g>
					<g>
						<rect x="64.82" y="33.537" fill="#231F20" width="0.75" height="5.498"/>
					</g>
					<rect x="64.825" y="39.864" fill="#231F20" width="0.75" height="1.1"/>
					<rect x="64.825" y="31.618" fill="#231F20" width="0.75" height="1.1"/>
				</g>
			</g>
		</g>
	</g>
</g>
<g>
	<g>
		<g>
			<g>
				<g>
					<g>
						<rect x="69.951" y="72" fill="none" width="7.5" height="10.205"/>
					</g>
					<g>
						<rect x="73.324" y="74.356" fill="#231F20" width="0.75" height="5.497"/>
					</g>
					<rect x="73.329" y="80.683" fill="#231F20" width="0.75" height="1.1"/>
					<rect x="73.329" y="72.437" fill="#231F20" width="0.75" height="1.1"/>
				</g>
			</g>
			<g>
				<g>
					<g>
						<rect x="69.951" y="61.796" fill="none" width="7.5" height="10.204"/>
					</g>
					<g>
						<rect x="73.324" y="64.151" fill="#231F20" width="0.75" height="5.498"/>
					</g>
					<rect x="73.329" y="70.479" fill="#231F20" width="0.75" height="1.1"/>
					<rect x="73.329" y="62.232" fill="#231F20" width="0.75" height="1.099"/>
				</g>
			</g>
			<g>
				<g>
					<g>
						<rect x="69.951" y="51.591" fill="none" width="7.5" height="10.205"/>
					</g>
					<g>
						<rect x="73.324" y="53.947" fill="#231F20" width="0.75" height="5.498"/>
					</g>
					<rect x="73.329" y="60.273" fill="#231F20" width="0.75" height="1.1"/>
					<rect x="73.329" y="52.027" fill="#231F20" width="0.75" height="1.099"/>
				</g>
			</g>
			<g>
				<g>
					<g>
						<rect x="69.951" y="41.386" fill="none" width="7.5" height="10.205"/>
					</g>
					<g>
						<rect x="73.324" y="43.742" fill="#231F20" width="0.75" height="5.498"/>
					</g>
					<rect x="73.329" y="50.069" fill="#231F20" width="0.75" height="1.099"/>
					<rect x="73.329" y="41.822" fill="#231F20" width="0.75" height="1.1"/>
				</g>
			</g>
			<g>
				<g>
					<g>
						<rect x="69.951" y="31.181" fill="none" width="7.5" height="10.205"/>
					</g>
					<g>
						<rect x="73.324" y="33.537" fill="#231F20" width="0.75" height="5.498"/>
					</g>
					<rect x="73.329" y="39.864" fill="#231F20" width="0.75" height="1.1"/>
					<rect x="73.329" y="31.618" fill="#231F20" width="0.75" height="1.1"/>
				</g>
			</g>
		</g>
	</g>
</g>
<g>
	<g>
		<g>
			<g>
				<g>
					<g>
						<rect x="78.455" y="72" fill="none" width="7.5" height="10.205"/>
					</g>
					<g>
						<rect x="81.828" y="74.356" fill="#231F20" width="0.75" height="5.497"/>
					</g>
					<rect x="81.833" y="80.683" fill="#231F20" width="0.75" height="1.1"/>
					<rect x="81.833" y="72.437" fill="#231F20" width="0.75" height="1.1"/>
				</g>
			</g>
			<g>
				<g>
					<g>
						<rect x="78.455" y="61.796" fill="none" width="7.5" height="10.204"/>
					</g>
					<g>
						<rect x="81.828" y="64.151" fill="#231F20" width="0.75" height="5.498"/>
					</g>
					<rect x="81.833" y="70.479" fill="#231F20" width="0.75" height="1.1"/>
					<rect x="81.833" y="62.232" fill="#231F20" width="0.75" height="1.099"/>
				</g>
			</g>
			<g>
				<g>
					<g>
						<rect x="78.455" y="51.591" fill="none" width="7.5" height="10.205"/>
					</g>
					<g>
						<rect x="81.828" y="53.947" fill="#231F20" width="0.75" height="5.498"/>
					</g>
					<rect x="81.833" y="60.273" fill="#231F20" width="0.75" height="1.1"/>
					<rect x="81.833" y="52.027" fill="#231F20" width="0.75" height="1.099"/>
				</g>
			</g>
			<g>
				<g>
					<g>
						<rect x="78.455" y="41.386" fill="none" width="7.5" height="10.205"/>
					</g>
					<g>
						<rect x="81.828" y="43.742" fill="#231F20" width="0.75" height="5.498"/>
					</g>
					<rect x="81.833" y="50.069" fill="#231F20" width="0.75" height="1.099"/>
					<rect x="81.833" y="41.822" fill="#231F20" width="0.75" height="1.1"/>
				</g>
			</g>
			<g>
				<g>
					<g>
						<rect x="78.455" y="31.181" fill="none" width="7.5" height="10.205"/>
					</g>
					<g>
						<rect x="81.828" y="33.537" fill="#231F20" width="0.75" height="5.498"/>
					</g>
					<rect x="81.833" y="39.864" fill="#231F20" width="0.75" height="1.1"/>
					<rect x="81.833" y="31.618" fill="#231F20" width="0.75" height="1.1"/>
				</g>
			</g>
		</g>
	</g>
</g>
<g>
	<g>
		<g>
			<g>
				<g>
					<g>
						<rect x="86.959" y="72" fill="none" width="7.5" height="10.205"/>
					</g>
					<g>
						<rect x="90.332" y="74.356" fill="#231F20" width="0.75" height="5.497"/>
					</g>
					<rect x="90.337" y="80.683" fill="#231F20" width="0.75" height="1.1"/>
					<rect x="90.337" y="72.437" fill="#231F20" width="0.75" height="1.1"/>
				</g>
			</g>
			<g>
				<g>
					<g>
						<rect x="86.959" y="61.796" fill="none" width="7.5" height="10.204"/>
					</g>
					<g>
						<rect x="90.332" y="64.151" fill="#231F20" width="0.75" height="5.498"/>
					</g>
					<rect x="90.337" y="70.479" fill="#231F20" width="0.75" height="1.1"/>
					<rect x="90.337" y="62.232" fill="#231F20" width="0.75" height="1.099"/>
				</g>
			</g>
			<g>
				<g>
					<g>
						<rect x="86.959" y="51.591" fill="none" width="7.5" height="10.205"/>
					</g>
					<g>
						<rect x="90.332" y="53.947" fill="#231F20" width="0.75" height="5.498"/>
					</g>
					<rect x="90.337" y="60.273" fill="#231F20" width="0.75" height="1.1"/>
					<rect x="90.337" y="52.027" fill="#231F20" width="0.75" height="1.099"/>
				</g>
			</g>
			<g>
				<g>
					<g>
						<rect x="86.959" y="41.386" fill="none" width="7.5" height="10.205"/>
					</g>
					<g>
						<rect x="90.332" y="43.742" fill="#231F20" width="0.75" height="5.498"/>
					</g>
					<rect x="90.337" y="50.069" fill="#231F20" width="0.75" height="1.099"/>
					<rect x="90.337" y="41.822" fill="#231F20" width="0.75" height="1.1"/>
				</g>
			</g>
			<g>
				<g>
					<g>
						<rect x="86.959" y="31.181" fill="none" width="7.5" height="10.205"/>
					</g>
					<g>
						<rect x="90.332" y="33.537" fill="#231F20" width="0.75" height="5.498"/>
					</g>
					<rect x="90.337" y="39.864" fill="#231F20" width="0.75" height="1.1"/>
					<rect x="90.337" y="31.618" fill="#231F20" width="0.75" height="1.1"/>
				</g>
			</g>
		</g>
	</g>
</g>
</svg>
