<?xml version="1.0" encoding="utf-8"?>
<!-- Generator: Adobe Illustrator 16.0.0, SVG Export Plug-In . SVG Version: 6.00 Build 0)  -->
<!DOCTYPE svg PUBLIC "-//W3C//DTD SVG 1.1//EN" "http://www.w3.org/Graphics/SVG/1.1/DTD/svg11.dtd">
<svg version="1.1" id="Layer_1" xmlns="http://www.w3.org/2000/svg" xmlns:xlink="http://www.w3.org/1999/xlink" x="0px" y="0px"
	 width="113.39px" height="113.39px" viewBox="0 0 113.39 113.39" enable-background="new 0 0 113.39 113.39" xml:space="preserve">
<g>
	<linearGradient id="SVGID_1_" gradientUnits="userSpaceOnUse" x1="56.6934" y1="99.2129" x2="56.6934" y2="14.1738">
		<stop  offset="0" style="stop-color:#020202"/>
		<stop  offset="0.5" style="stop-color:#2A2A2A"/>
		<stop  offset="1" style="stop-color:#000000"/>
	</linearGradient>
	<rect x="35.433" y="14.173" fill="url(#SVGID_1_)" width="42.52" height="85.04"/>
	<g>
		<g>
			<g>
				<g>
					<g>
						<rect x="27.934" y="77.705" fill="none" width="14.999" height="14.009"/>
					</g>
					<rect x="34.902" y="78.74" fill-rule="evenodd" clip-rule="evenodd" fill="#231F20" width="1.5" height="2.601"/>
					<rect x="34.902" y="83.404" fill-rule="evenodd" clip-rule="evenodd" fill="#231F20" width="1.5" height="2.6"/>
					<rect x="34.902" y="88.052" fill-rule="evenodd" clip-rule="evenodd" fill="#231F20" width="1.5" height="2.601"/>
				</g>
			</g>
			<g>
				<g>
					<g>
						<rect x="27.934" y="63.697" fill="none" width="14.999" height="14.008"/>
					</g>
					<rect x="34.902" y="64.732" fill-rule="evenodd" clip-rule="evenodd" fill="#231F20" width="1.5" height="2.6"/>
					<rect x="34.902" y="69.396" fill-rule="evenodd" clip-rule="evenodd" fill="#231F20" width="1.5" height="2.601"/>
					<rect x="34.902" y="74.044" fill-rule="evenodd" clip-rule="evenodd" fill="#231F20" width="1.5" height="2.6"/>
				</g>
			</g>
			<g>
				<g>
					<g>
						<rect x="27.934" y="49.689" fill="none" width="14.999" height="14.008"/>
					</g>
					<rect x="34.902" y="50.724" fill-rule="evenodd" clip-rule="evenodd" fill="#231F20" width="1.5" height="2.6"/>
					<rect x="34.902" y="55.388" fill-rule="evenodd" clip-rule="evenodd" fill="#231F20" width="1.5" height="2.6"/>
					<rect x="34.902" y="60.036" fill-rule="evenodd" clip-rule="evenodd" fill="#231F20" width="1.5" height="2.6"/>
				</g>
			</g>
			<g>
				<g>
					<g>
						<rect x="27.934" y="35.681" fill="none" width="14.999" height="14.008"/>
					</g>
					<rect x="34.902" y="36.716" fill-rule="evenodd" clip-rule="evenodd" fill="#231F20" width="1.5" height="2.6"/>
					<rect x="34.902" y="41.379" fill-rule="evenodd" clip-rule="evenodd" fill="#231F20" width="1.5" height="2.6"/>
					<rect x="34.902" y="46.027" fill-rule="evenodd" clip-rule="evenodd" fill="#231F20" width="1.5" height="2.6"/>
				</g>
			</g>
			<g>
				<g>
					<g>
						<rect x="27.934" y="21.673" fill="none" width="14.999" height="14.008"/>
					</g>
					<rect x="34.902" y="22.708" fill-rule="evenodd" clip-rule="evenodd" fill="#231F20" width="1.5" height="2.6"/>
					<rect x="34.902" y="27.371" fill-rule="evenodd" clip-rule="evenodd" fill="#231F20" width="1.5" height="2.6"/>
					<rect x="34.902" y="32.02" fill-rule="evenodd" clip-rule="evenodd" fill="#231F20" width="1.5" height="2.6"/>
				</g>
			</g>
			<g>
				<g>
					<g>
						<rect x="42.933" y="6.674" fill="none" width="13.761" height="14.999"/>
					</g>
					<rect x="53.122" y="13.643" fill-rule="evenodd" clip-rule="evenodd" fill="#231F20" width="2.554" height="1.5"/>
					<rect x="48.541" y="13.643" fill-rule="evenodd" clip-rule="evenodd" fill="#231F20" width="2.554" height="1.5"/>
					<rect x="43.975" y="13.643" fill-rule="evenodd" clip-rule="evenodd" fill="#231F20" width="2.554" height="1.5"/>
				</g>
			</g>
			<g>
				<g>
					<g>
						<rect x="56.693" y="6.674" fill="none" width="13.761" height="14.999"/>
					</g>
					<rect x="66.883" y="13.643" fill-rule="evenodd" clip-rule="evenodd" fill="#231F20" width="2.555" height="1.5"/>
					<rect x="62.302" y="13.643" fill-rule="evenodd" clip-rule="evenodd" fill="#231F20" width="2.555" height="1.5"/>
					<rect x="57.736" y="13.643" fill-rule="evenodd" clip-rule="evenodd" fill="#231F20" width="2.554" height="1.5"/>
				</g>
			</g>
			<g>
				<g>
					<g>
						<rect x="70.454" y="21.673" fill="none" width="14.998" height="14.008"/>
					</g>
					<rect x="76.983" y="32.046" fill-rule="evenodd" clip-rule="evenodd" fill="#231F20" width="1.5" height="2.6"/>
					<rect x="76.983" y="27.382" fill-rule="evenodd" clip-rule="evenodd" fill="#231F20" width="1.5" height="2.6"/>
					<rect x="76.983" y="22.734" fill-rule="evenodd" clip-rule="evenodd" fill="#231F20" width="1.5" height="2.6"/>
				</g>
			</g>
			<g>
				<g>
					<g>
						<rect x="70.454" y="35.681" fill="none" width="14.998" height="14.008"/>
					</g>
					<rect x="76.983" y="46.054" fill-rule="evenodd" clip-rule="evenodd" fill="#231F20" width="1.5" height="2.6"/>
					<rect x="76.983" y="41.391" fill-rule="evenodd" clip-rule="evenodd" fill="#231F20" width="1.5" height="2.6"/>
					<rect x="76.983" y="36.742" fill-rule="evenodd" clip-rule="evenodd" fill="#231F20" width="1.5" height="2.6"/>
				</g>
			</g>
			<g>
				<g>
					<g>
						<rect x="70.454" y="49.689" fill="none" width="14.998" height="14.008"/>
					</g>
					<rect x="76.983" y="60.063" fill-rule="evenodd" clip-rule="evenodd" fill="#231F20" width="1.5" height="2.6"/>
					<rect x="76.983" y="55.398" fill-rule="evenodd" clip-rule="evenodd" fill="#231F20" width="1.5" height="2.6"/>
					<rect x="76.983" y="50.75" fill-rule="evenodd" clip-rule="evenodd" fill="#231F20" width="1.5" height="2.6"/>
				</g>
			</g>
			<g>
				<g>
					<g>
						<rect x="70.454" y="63.697" fill="none" width="14.998" height="14.008"/>
					</g>
					<rect x="76.983" y="74.07" fill-rule="evenodd" clip-rule="evenodd" fill="#231F20" width="1.5" height="2.601"/>
					<rect x="76.983" y="69.407" fill-rule="evenodd" clip-rule="evenodd" fill="#231F20" width="1.5" height="2.6"/>
					<rect x="76.983" y="64.759" fill-rule="evenodd" clip-rule="evenodd" fill="#231F20" width="1.5" height="2.6"/>
				</g>
			</g>
			<g>
				<g>
					<g>
						<rect x="70.454" y="77.705" fill="none" width="14.998" height="14.009"/>
					</g>
					<rect x="76.983" y="88.078" fill-rule="evenodd" clip-rule="evenodd" fill="#231F20" width="1.5" height="2.601"/>
					<rect x="76.983" y="83.415" fill-rule="evenodd" clip-rule="evenodd" fill="#231F20" width="1.5" height="2.601"/>
					<rect x="76.983" y="78.767" fill-rule="evenodd" clip-rule="evenodd" fill="#231F20" width="1.5" height="2.601"/>
				</g>
			</g>
			<g>
				<g>
					<g>
						<rect x="56.693" y="91.714" fill="none" width="13.761" height="14.998"/>
					</g>
					<rect x="57.71" y="98.243" fill-rule="evenodd" clip-rule="evenodd" fill="#231F20" width="2.554" height="1.5"/>
					<rect x="62.291" y="98.243" fill-rule="evenodd" clip-rule="evenodd" fill="#231F20" width="2.554" height="1.5"/>
					<rect x="66.857" y="98.243" fill-rule="evenodd" clip-rule="evenodd" fill="#231F20" width="2.554" height="1.5"/>
				</g>
			</g>
			<g>
				<g>
					<g>
						<rect x="42.933" y="91.714" fill="none" width="13.761" height="14.998"/>
					</g>
					<rect x="43.949" y="98.243" fill-rule="evenodd" clip-rule="evenodd" fill="#231F20" width="2.554" height="1.5"/>
					<rect x="48.53" y="98.243" fill-rule="evenodd" clip-rule="evenodd" fill="#231F20" width="2.554" height="1.5"/>
					<rect x="53.096" y="98.243" fill-rule="evenodd" clip-rule="evenodd" fill="#231F20" width="2.554" height="1.5"/>
				</g>
			</g>
			<g>
				<rect x="34.796" y="18.142" fill-rule="evenodd" clip-rule="evenodd" fill="#231F20" width="1.506" height="2.501"/>
				<polygon fill-rule="evenodd" clip-rule="evenodd" fill="#231F20" points="34.796,13.642 34.796,16.142 36.302,16.142 
					36.302,15.142 37.296,15.142 37.296,13.642 				"/>
				<rect x="39.296" y="13.642" fill-rule="evenodd" clip-rule="evenodd" fill="#231F20" width="2.5" height="1.5"/>
			</g>
			<g>
				<rect x="71.484" y="13.537" fill-rule="evenodd" clip-rule="evenodd" fill="#231F20" width="2.501" height="1.506"/>
				<polygon fill-rule="evenodd" clip-rule="evenodd" fill="#231F20" points="78.485,13.537 75.985,13.537 75.985,15.042 
					76.985,15.042 76.985,16.037 78.485,16.037 				"/>
				<rect x="76.985" y="18.037" fill-rule="evenodd" clip-rule="evenodd" fill="#231F20" width="1.5" height="2.5"/>
			</g>
			<g>
				<rect x="77.084" y="92.744" fill-rule="evenodd" clip-rule="evenodd" fill="#231F20" width="1.506" height="2.501"/>
				<polygon fill-rule="evenodd" clip-rule="evenodd" fill="#231F20" points="78.59,99.745 78.59,97.245 77.084,97.245 
					77.084,98.245 76.09,98.245 76.09,99.745 				"/>
				<rect x="71.59" y="98.245" fill-rule="evenodd" clip-rule="evenodd" fill="#231F20" width="2.5" height="1.5"/>
			</g>
			<g>
				<rect x="39.401" y="98.344" fill-rule="evenodd" clip-rule="evenodd" fill="#231F20" width="2.501" height="1.506"/>
				<polygon fill-rule="evenodd" clip-rule="evenodd" fill="#231F20" points="34.901,99.85 37.401,99.85 37.401,98.344 
					36.401,98.344 36.401,97.35 34.901,97.35 				"/>
				<rect x="34.901" y="92.85" fill-rule="evenodd" clip-rule="evenodd" fill="#231F20" width="1.5" height="2.5"/>
			</g>
		</g>
	</g>
</g>
</svg>
